<svg width="357" height="46" viewBox="0 0 357 46" fill="none" xmlns="http://www.w3.org/2000/svg">
<path d="M108.141 7.89492C108.141 8.10038 108.243 8.26181 108.449 8.37922C108.664 8.49662 108.997 8.62381 109.447 8.76078C109.985 8.93689 110.425 9.10811 110.768 9.27443C111.12 9.44076 111.423 9.70003 111.677 10.0522C111.942 10.4045 112.074 10.8643 112.074 11.4318C112.074 13.2515 110.89 14.1614 108.522 14.1614C108.131 14.1614 107.651 14.1272 107.084 14.0587C106.526 13.9902 106.018 13.9022 105.558 13.7945C105.577 13.5891 105.616 13.2907 105.675 12.8993C105.744 12.4982 105.807 12.1998 105.866 12.0041C106.208 12.053 106.722 12.1117 107.407 12.1802C108.101 12.2487 108.625 12.2829 108.977 12.2829C109.183 12.2829 109.305 12.2683 109.344 12.2389C109.403 12.1998 109.447 12.1362 109.476 12.0481C109.515 11.9503 109.535 11.8671 109.535 11.7986C109.535 11.603 109.442 11.4562 109.256 11.3584C109.07 11.2508 108.752 11.1236 108.302 10.9768C107.764 10.8105 107.319 10.6393 106.967 10.4632C106.614 10.2871 106.306 10.0131 106.042 9.64133C105.778 9.26954 105.646 8.78035 105.646 8.17376C105.646 7.74327 105.744 7.32257 105.939 6.91165C106.135 6.49095 106.335 6.20722 106.541 6.06046C106.697 5.95284 107.02 5.85011 107.51 5.75227C107.999 5.65443 108.459 5.60552 108.889 5.60552C109.985 5.60552 110.88 5.70825 111.575 5.9137C111.565 6.10938 111.531 6.37843 111.472 6.72087C111.423 7.0633 111.369 7.37638 111.311 7.66011L110.973 7.64543C109.701 7.55738 108.889 7.51335 108.537 7.51335C108.39 7.51335 108.307 7.51824 108.287 7.52803C108.248 7.5476 108.214 7.59162 108.185 7.66011C108.155 7.7286 108.141 7.80687 108.141 7.89492ZM117.249 12.2389C117.494 12.2389 117.949 12.2145 118.614 12.1655C118.702 12.1655 118.863 12.1558 119.098 12.1362L119.318 13.6478C118.565 14 117.587 14.1761 116.383 14.1761C115.258 14.1761 114.392 13.8924 113.786 13.3249C113.189 12.7575 112.89 11.9014 112.89 10.7567C112.89 10.1696 112.964 9.60219 113.11 9.0543C113.267 8.50641 113.443 8.12484 113.639 7.9096C113.844 7.69435 114.226 7.50846 114.784 7.35192C115.341 7.19538 115.894 7.11711 116.442 7.11711C117.322 7.11711 117.983 7.27365 118.423 7.58673C118.863 7.89981 119.152 8.33519 119.289 8.89287C119.426 9.44076 119.494 10.1794 119.494 11.1089C118.829 11.148 118.178 11.1676 117.543 11.1676H115.459C115.459 11.4807 115.522 11.7155 115.649 11.872C115.786 12.0286 115.977 12.1313 116.222 12.1802C116.466 12.2194 116.809 12.2389 117.249 12.2389ZM115.605 8.86351C115.547 8.89287 115.503 9.02006 115.473 9.24508C115.444 9.47011 115.424 9.72449 115.415 10.0082H116.178C116.638 10.0082 116.97 10.0033 117.176 9.99354C117.176 9.52392 117.107 9.19127 116.97 8.9956C116.843 8.79992 116.618 8.70208 116.295 8.70208C116.031 8.70208 115.801 8.75589 115.605 8.86351ZM127.129 7.24919V14H125.089L124.81 12.87C124.105 13.7212 123.264 14.1468 122.286 14.1468C121.933 14.1468 121.601 14.0978 121.288 14C120.984 13.9022 120.754 13.7603 120.598 13.5744C120.51 13.4668 120.441 13.1977 120.392 12.7672C120.353 12.3368 120.334 11.6812 120.334 10.8007V7.24919H122.843V10.7714C122.843 10.967 122.848 11.1969 122.858 11.4611C122.868 11.7253 122.897 11.8916 122.946 11.9601C123.014 12.0579 123.21 12.1068 123.533 12.1068L123.768 12.0922C124.042 12.0824 124.325 12.0188 124.619 11.9014V7.24919H127.129ZM135.176 7.10243C135.881 7.10243 136.438 7.33724 136.849 7.80687C137.27 8.2667 137.48 9.07387 137.48 10.2284C137.48 11.0893 137.397 11.7938 137.231 12.3416C137.065 12.8798 136.874 13.2369 136.659 13.413C136.443 13.5891 136.067 13.7309 135.529 13.8386C135 13.9462 134.452 14 133.885 14C133.719 14 133.44 13.9902 133.048 13.9706V16.0546L130.539 16.1573V7.24919H132.593L132.843 8.29116C133.097 7.92916 133.42 7.64054 133.812 7.4253C134.213 7.21006 134.668 7.10243 135.176 7.10243ZM134.589 12.2096C134.697 12.1313 134.775 11.9112 134.824 11.5492C134.873 11.1774 134.898 10.8252 134.898 10.4925C134.898 9.94462 134.829 9.5386 134.692 9.27443C134.555 9.01027 134.281 8.87819 133.87 8.87819C133.577 8.87819 133.303 8.90754 133.048 8.96624V12.2242L133.459 12.2683C133.587 12.2781 133.768 12.2829 134.002 12.2829C134.335 12.2829 134.531 12.2585 134.589 12.2096ZM142.647 7.10243C142.774 7.10243 142.906 7.11711 143.043 7.14646C143.19 7.17581 143.298 7.21006 143.366 7.24919C143.366 7.46443 143.342 7.82154 143.293 8.32051C143.244 8.8097 143.2 9.15703 143.161 9.36249C143.063 9.3527 142.882 9.34781 142.618 9.34781C142.001 9.34781 141.453 9.38206 140.974 9.45054V14H138.464V7.24919H140.563L140.856 8.33519H140.871C141.155 7.96341 141.458 7.665 141.781 7.43997C142.104 7.21495 142.393 7.10243 142.647 7.10243ZM147.283 14.1908C146.109 14.1908 145.228 13.9168 144.641 13.3689C144.064 12.8113 143.776 11.9356 143.776 10.742C143.776 10.0865 143.834 9.51414 143.952 9.02495C144.079 8.52597 144.23 8.17865 144.407 7.98297C144.632 7.7286 145.043 7.51824 145.639 7.35192C146.246 7.1856 146.813 7.10243 147.342 7.10243C148.604 7.10243 149.504 7.37149 150.042 7.9096C150.58 8.4477 150.849 9.30868 150.849 10.4925C150.849 11.7644 150.561 12.6988 149.983 13.2956C149.406 13.8924 148.506 14.1908 147.283 14.1908ZM147.327 12.4737C147.709 12.4737 147.958 12.3416 148.076 12.0775C148.193 11.8035 148.252 11.3241 148.252 10.6393C148.252 10.1599 148.227 9.79297 148.178 9.5386C148.129 9.27443 148.036 9.08365 147.899 8.96624C147.772 8.83906 147.572 8.77546 147.298 8.77546C146.906 8.77546 146.681 8.8097 146.623 8.87819C146.544 8.94668 146.481 9.16192 146.432 9.52392C146.383 9.88592 146.358 10.2626 146.358 10.6539C146.358 11.3192 146.422 11.7889 146.549 12.0628C146.686 12.3368 146.945 12.4737 147.327 12.4737ZM157.487 13.7945C156.694 14.0587 155.809 14.1908 154.83 14.1908C153.735 14.1908 152.913 13.9168 152.365 13.3689C151.827 12.8113 151.558 11.9454 151.558 10.7714C151.558 10.1941 151.636 9.62665 151.792 9.06897C151.949 8.50151 152.115 8.11995 152.291 7.92427C152.497 7.69924 152.898 7.50846 153.495 7.35192C154.101 7.19538 154.728 7.11711 155.373 7.11711C156.048 7.11711 156.728 7.17581 157.413 7.29322C157.394 7.53781 157.359 7.82643 157.311 8.15908C157.271 8.48195 157.227 8.77057 157.178 9.02495C156.572 8.98581 155.999 8.96624 155.461 8.96624C154.933 8.96624 154.596 8.9956 154.449 9.0543C154.37 9.08365 154.297 9.28422 154.229 9.656C154.17 10.0278 154.141 10.3751 154.141 10.698C154.141 11.1285 154.199 11.4611 154.317 11.6959C154.444 11.9209 154.64 12.0775 154.904 12.1655C155.168 12.2536 155.525 12.2976 155.975 12.2976C156.171 12.2976 156.601 12.2781 157.266 12.2389L157.487 13.7945ZM162.423 12.2389C162.667 12.2389 163.122 12.2145 163.787 12.1655C163.875 12.1655 164.037 12.1558 164.272 12.1362L164.492 13.6478C163.738 14 162.76 14.1761 161.557 14.1761C160.432 14.1761 159.566 13.8924 158.959 13.3249C158.362 12.7575 158.064 11.9014 158.064 10.7567C158.064 10.1696 158.137 9.60219 158.284 9.0543C158.441 8.50641 158.617 8.12484 158.812 7.9096C159.018 7.69435 159.399 7.50846 159.957 7.35192C160.515 7.19538 161.068 7.11711 161.615 7.11711C162.496 7.11711 163.156 7.27365 163.597 7.58673C164.037 7.89981 164.326 8.33519 164.462 8.89287C164.599 9.44076 164.668 10.1794 164.668 11.1089C164.003 11.148 163.352 11.1676 162.716 11.1676H160.632C160.632 11.4807 160.696 11.7155 160.823 11.872C160.96 12.0286 161.151 12.1313 161.395 12.1802C161.64 12.2194 161.982 12.2389 162.423 12.2389ZM160.779 8.86351C160.72 8.89287 160.676 9.02006 160.647 9.24508C160.617 9.47011 160.598 9.72449 160.588 10.0082H161.351C161.811 10.0082 162.144 10.0033 162.349 9.99354C162.349 9.52392 162.281 9.19127 162.144 8.9956C162.017 8.79992 161.792 8.70208 161.469 8.70208C161.204 8.70208 160.975 8.75589 160.779 8.86351ZM171.011 11.7106C171.011 12.5814 170.732 13.2075 170.174 13.5891C169.626 13.9706 168.843 14.1614 167.826 14.1614C167.112 14.1614 166.29 14.0587 165.36 13.8532C165.38 13.6576 165.424 13.3787 165.493 13.0167C165.571 12.6449 165.634 12.3612 165.683 12.1655C166.036 12.2242 166.427 12.2732 166.857 12.3123C167.288 12.3416 167.655 12.3563 167.958 12.3563C168.222 12.3563 168.384 12.3416 168.442 12.3123C168.452 12.3025 168.462 12.2781 168.472 12.2389C168.491 12.19 168.501 12.1411 168.501 12.0922C168.501 11.8965 168.379 11.7644 168.134 11.6959C168.056 11.6764 167.757 11.5932 167.239 11.4464C166.72 11.2997 166.295 11.0355 165.962 10.6539C165.639 10.2626 165.478 9.7783 165.478 9.20106C165.478 8.89776 165.546 8.56022 165.683 8.18843C165.82 7.81665 165.967 7.58184 166.124 7.484C166.241 7.40573 166.525 7.32746 166.975 7.24919C167.425 7.16114 167.841 7.11711 168.222 7.11711C169.034 7.11711 169.851 7.17581 170.673 7.29322C170.673 7.46933 170.649 7.76773 170.6 8.18843C170.551 8.59935 170.507 8.85862 170.468 8.96624C169.636 8.85862 168.966 8.80481 168.457 8.80481C168.193 8.80481 168.022 8.81949 167.943 8.84884C167.924 8.85862 167.904 8.88797 167.885 8.93689C167.865 8.97603 167.855 9.02984 167.855 9.09833C167.855 9.2353 167.899 9.33314 167.987 9.39184C168.075 9.46033 168.305 9.54349 168.677 9.64133C169.117 9.76851 169.494 9.9006 169.807 10.0376C170.13 10.1745 170.409 10.38 170.644 10.6539C170.888 10.9279 171.011 11.2801 171.011 11.7106ZM177.302 11.7106C177.302 12.5814 177.023 13.2075 176.466 13.5891C175.918 13.9706 175.135 14.1614 174.118 14.1614C173.403 14.1614 172.582 14.0587 171.652 13.8532C171.672 13.6576 171.716 13.3787 171.784 13.0167C171.862 12.6449 171.926 12.3612 171.975 12.1655C172.327 12.2242 172.719 12.2732 173.149 12.3123C173.579 12.3416 173.946 12.3563 174.25 12.3563C174.514 12.3563 174.675 12.3416 174.734 12.3123C174.744 12.3025 174.754 12.2781 174.763 12.2389C174.783 12.19 174.793 12.1411 174.793 12.0922C174.793 11.8965 174.67 11.7644 174.426 11.6959C174.348 11.6764 174.049 11.5932 173.531 11.4464C173.012 11.2997 172.586 11.0355 172.254 10.6539C171.931 10.2626 171.769 9.7783 171.769 9.20106C171.769 8.89776 171.838 8.56022 171.975 8.18843C172.112 7.81665 172.259 7.58184 172.415 7.484C172.533 7.40573 172.816 7.32746 173.266 7.24919C173.716 7.16114 174.132 7.11711 174.514 7.11711C175.326 7.11711 176.143 7.17581 176.965 7.29322C176.965 7.46933 176.94 7.76773 176.891 8.18843C176.842 8.59935 176.798 8.85862 176.759 8.96624C175.928 8.85862 175.257 8.80481 174.749 8.80481C174.484 8.80481 174.313 8.81949 174.235 8.84884C174.215 8.85862 174.196 8.88797 174.176 8.93689C174.157 8.97603 174.147 9.02984 174.147 9.09833C174.147 9.2353 174.191 9.33314 174.279 9.39184C174.367 9.46033 174.597 9.54349 174.969 9.64133C175.409 9.76851 175.786 9.9006 176.099 10.0376C176.422 10.1745 176.701 10.38 176.935 10.6539C177.18 10.9279 177.302 11.2801 177.302 11.7106ZM181.392 14.1908C180.218 14.1908 179.338 13.9168 178.751 13.3689C178.174 12.8113 177.885 11.9356 177.885 10.742C177.885 10.0865 177.944 9.51414 178.061 9.02495C178.188 8.52597 178.34 8.17865 178.516 7.98297C178.741 7.7286 179.152 7.51824 179.749 7.35192C180.355 7.1856 180.923 7.10243 181.451 7.10243C182.713 7.10243 183.613 7.37149 184.152 7.9096C184.69 8.4477 184.959 9.30868 184.959 10.4925C184.959 11.7644 184.67 12.6988 184.093 13.2956C183.516 13.8924 182.615 14.1908 181.392 14.1908ZM181.437 12.4737C181.818 12.4737 182.068 12.3416 182.185 12.0775C182.302 11.8035 182.361 11.3241 182.361 10.6393C182.361 10.1599 182.337 9.79297 182.288 9.5386C182.239 9.27443 182.146 9.08365 182.009 8.96624C181.882 8.83906 181.681 8.77546 181.407 8.77546C181.016 8.77546 180.791 8.8097 180.732 8.87819C180.654 8.94668 180.59 9.16192 180.541 9.52392C180.492 9.88592 180.468 10.2626 180.468 10.6539C180.468 11.3192 180.532 11.7889 180.659 12.0628C180.796 12.3368 181.055 12.4737 181.437 12.4737ZM194.845 5.09187V14H192.776L192.57 12.87C192.375 13.2515 192.086 13.5548 191.705 13.7799C191.323 14.0049 190.893 14.1174 190.413 14.1174C189.65 14.1174 189.038 13.8435 188.579 13.2956C188.129 12.7477 187.904 11.9258 187.904 10.8301C187.904 9.99843 188.001 9.31357 188.197 8.77546C188.393 8.23735 188.623 7.85089 188.887 7.61608C189.053 7.46933 189.391 7.34703 189.899 7.24919C190.418 7.15135 190.878 7.10243 191.279 7.10243C191.631 7.10243 191.993 7.13668 192.365 7.20516C192.336 6.73554 192.321 6.47627 192.321 6.42735V5.1946L194.845 5.09187ZM191.514 12.1509C191.778 12.1509 192.052 12.1068 192.336 12.0188V8.83416C192.052 8.79503 191.739 8.77546 191.396 8.77546C191.103 8.77546 190.917 8.79992 190.839 8.84884C190.731 8.92711 190.643 9.15214 190.575 9.52392C190.516 9.88592 190.486 10.2675 190.486 10.6686C190.486 11.2654 190.575 11.6617 190.751 11.8574C190.937 12.053 191.191 12.1509 191.514 12.1509ZM200.144 12.2389C200.388 12.2389 200.843 12.2145 201.508 12.1655C201.597 12.1655 201.758 12.1558 201.993 12.1362L202.213 13.6478C201.46 14 200.481 14.1761 199.278 14.1761C198.153 14.1761 197.287 13.8924 196.68 13.3249C196.083 12.7575 195.785 11.9014 195.785 10.7567C195.785 10.1696 195.858 9.60219 196.005 9.0543C196.162 8.50641 196.338 8.12484 196.533 7.9096C196.739 7.69435 197.12 7.50846 197.678 7.35192C198.236 7.19538 198.789 7.11711 199.336 7.11711C200.217 7.11711 200.877 7.27365 201.318 7.58673C201.758 7.89981 202.047 8.33519 202.184 8.89287C202.321 9.44076 202.389 10.1794 202.389 11.1089C201.724 11.148 201.073 11.1676 200.437 11.1676H198.353C198.353 11.4807 198.417 11.7155 198.544 11.872C198.681 12.0286 198.872 12.1313 199.116 12.1802C199.361 12.2194 199.703 12.2389 200.144 12.2389ZM198.5 8.86351C198.441 8.89287 198.397 9.02006 198.368 9.24508C198.339 9.47011 198.319 9.72449 198.309 10.0082H199.072C199.532 10.0082 199.865 10.0033 200.07 9.99354C200.07 9.52392 200.002 9.19127 199.865 8.9956C199.738 8.79992 199.513 8.70208 199.19 8.70208C198.926 8.70208 198.696 8.75589 198.5 8.86351ZM209.574 12.2389C209.819 12.2389 210.273 12.2145 210.939 12.1655C211.027 12.1655 211.188 12.1558 211.423 12.1362L211.643 13.6478C210.89 14 209.911 14.1761 208.708 14.1761C207.583 14.1761 206.717 13.8924 206.11 13.3249C205.514 12.7575 205.215 11.9014 205.215 10.7567C205.215 10.1696 205.289 9.60219 205.435 9.0543C205.592 8.50641 205.768 8.12484 205.964 7.9096C206.169 7.69435 206.551 7.50846 207.108 7.35192C207.666 7.19538 208.219 7.11711 208.767 7.11711C209.647 7.11711 210.308 7.27365 210.748 7.58673C211.188 7.89981 211.477 8.33519 211.614 8.89287C211.751 9.44076 211.819 10.1794 211.819 11.1089C211.154 11.148 210.503 11.1676 209.867 11.1676H207.783C207.783 11.4807 207.847 11.7155 207.974 11.872C208.111 12.0286 208.302 12.1313 208.547 12.1802C208.791 12.2194 209.134 12.2389 209.574 12.2389ZM207.93 8.86351C207.872 8.89287 207.828 9.02006 207.798 9.24508C207.769 9.47011 207.749 9.72449 207.739 10.0082H208.503C208.962 10.0082 209.295 10.0033 209.501 9.99354C209.501 9.52392 209.432 9.19127 209.295 8.9956C209.168 8.79992 208.943 8.70208 208.62 8.70208C208.356 8.70208 208.126 8.75589 207.93 8.86351ZM223.254 7.71881C223.411 7.95362 223.489 8.86351 223.489 10.4485V14H220.98V10.698V9.90549C220.98 9.54349 220.945 9.32824 220.877 9.25976C220.799 9.18149 220.632 9.14235 220.378 9.14235L220.202 9.15703C219.899 9.1766 219.61 9.24508 219.336 9.36249C219.346 9.56795 219.351 9.92995 219.351 10.4485V14H216.841V10.698V9.81743C216.841 9.51414 216.807 9.32824 216.738 9.25976C216.66 9.18149 216.494 9.14235 216.239 9.14235L216.063 9.15703C215.789 9.16681 215.506 9.23041 215.212 9.34781V14H212.703V7.24919H214.742L215.007 8.34987C215.33 7.91938 215.701 7.6063 216.122 7.41062C216.543 7.20516 216.968 7.10243 217.399 7.10243C217.761 7.10243 218.103 7.15624 218.426 7.26387C218.759 7.37149 218.989 7.52314 219.116 7.71881C219.175 7.80687 219.223 7.9683 219.263 8.20311C219.576 7.82154 219.933 7.5427 220.334 7.3666C220.735 7.19049 221.136 7.10243 221.537 7.10243C221.899 7.10243 222.242 7.15624 222.565 7.26387C222.897 7.37149 223.127 7.52314 223.254 7.71881ZM228.676 14L228.442 13.0754C227.991 13.8092 227.365 14.1761 226.563 14.1761C225.908 14.1761 225.369 13.9951 224.949 13.6331C224.538 13.2613 224.332 12.7428 224.332 12.0775C224.332 11.6666 224.45 11.3095 224.685 11.0062C224.929 10.6931 225.262 10.4729 225.683 10.3458C226.23 10.1892 227.077 10.1012 228.221 10.0816C228.221 9.43587 228.192 9.09343 228.133 9.0543C228.084 9.01516 227.928 8.9956 227.664 8.9956C227.497 8.9956 227.267 9.00538 226.974 9.02495C226.504 9.04451 225.868 9.09833 225.066 9.18638C224.988 8.65806 224.929 8.0906 224.89 7.484C225.409 7.37638 225.952 7.28833 226.519 7.21984C227.086 7.14157 227.595 7.10243 228.045 7.10243C228.828 7.10243 229.415 7.23452 229.806 7.49868C230.198 7.75306 230.452 8.0906 230.57 8.5113C230.687 8.932 230.741 9.46522 230.731 10.1109L230.716 12.2683L230.76 14H228.676ZM227.414 12.5324C227.669 12.5324 227.938 12.4835 228.221 12.3857V11.2997H228.104C227.38 11.2997 226.979 11.3388 226.901 11.4171C226.852 11.466 226.813 11.5394 226.783 11.6372C226.764 11.7351 226.754 11.828 226.754 11.9161C226.754 12.1509 226.808 12.3123 226.915 12.4004C227.023 12.4884 227.189 12.5324 227.414 12.5324ZM235.386 7.13179C235.846 7.13179 236.325 7.16603 236.824 7.23452C237.323 7.29322 237.906 7.37638 238.571 7.484V13.3249C238.571 14.724 238.106 15.81 237.177 16.5829C237.059 16.6808 236.795 16.7639 236.384 16.8324C235.973 16.9009 235.509 16.9351 234.99 16.9351C233.865 16.9351 232.975 16.7884 232.319 16.4949C232.309 16.2796 232.324 15.9959 232.363 15.6437C232.412 15.2915 232.461 15.0126 232.51 14.8072C233.214 14.9148 233.904 14.9686 234.579 14.9686C234.922 14.9686 235.21 14.949 235.445 14.9099C235.69 14.8805 235.841 14.8316 235.9 14.7631C235.978 14.6849 236.037 14.3914 236.076 13.8826C236.086 13.7456 236.091 13.5451 236.091 13.2809V12.914C235.846 13.276 235.533 13.5353 235.151 13.6918C234.77 13.8484 234.427 13.9266 234.124 13.9266C233.302 13.9266 232.681 13.6576 232.26 13.1195C231.84 12.5814 231.629 11.7938 231.629 10.7567C231.629 10.0718 231.722 9.43097 231.908 8.83416C232.104 8.22757 232.368 7.80687 232.701 7.57206C232.916 7.4253 233.263 7.31768 233.743 7.24919C234.232 7.17092 234.78 7.13179 235.386 7.13179ZM235.078 12.0922C235.44 12.0922 235.768 12.0335 236.061 11.9161V8.84884C235.954 8.82927 235.792 8.8097 235.577 8.79014C235.479 8.78035 235.332 8.77546 235.137 8.77546C234.833 8.77546 234.643 8.80481 234.564 8.86351C234.457 8.94179 234.369 9.16192 234.3 9.52392C234.242 9.87614 234.212 10.2479 234.212 10.6393C234.212 11.1774 234.271 11.5541 234.388 11.7693C234.515 11.9845 234.745 12.0922 235.078 12.0922ZM243.943 7.10243C244.071 7.10243 244.203 7.11711 244.34 7.14646C244.486 7.17581 244.594 7.21006 244.663 7.24919C244.663 7.46443 244.638 7.82154 244.589 8.32051C244.54 8.8097 244.496 9.15703 244.457 9.36249C244.359 9.3527 244.178 9.34781 243.914 9.34781C243.298 9.34781 242.75 9.38206 242.27 9.45054V14H239.761V7.24919H241.859L242.153 8.33519H242.168C242.451 7.96341 242.755 7.665 243.078 7.43997C243.4 7.21495 243.689 7.10243 243.943 7.10243ZM249.416 12.2389C249.661 12.2389 250.116 12.2145 250.781 12.1655C250.869 12.1655 251.03 12.1558 251.265 12.1362L251.485 13.6478C250.732 14 249.754 14.1761 248.55 14.1761C247.425 14.1761 246.559 13.8924 245.953 13.3249C245.356 12.7575 245.057 11.9014 245.057 10.7567C245.057 10.1696 245.131 9.60219 245.278 9.0543C245.434 8.50641 245.61 8.12484 245.806 7.9096C246.011 7.69435 246.393 7.50846 246.951 7.35192C247.508 7.19538 248.061 7.11711 248.609 7.11711C249.489 7.11711 250.15 7.27365 250.59 7.58673C251.03 7.89981 251.319 8.33519 251.456 8.89287C251.593 9.44076 251.661 10.1794 251.661 11.1089C250.996 11.148 250.346 11.1676 249.71 11.1676H247.626C247.626 11.4807 247.689 11.7155 247.816 11.872C247.953 12.0286 248.144 12.1313 248.389 12.1802C248.633 12.2194 248.976 12.2389 249.416 12.2389ZM247.772 8.86351C247.714 8.89287 247.67 9.02006 247.64 9.24508C247.611 9.47011 247.591 9.72449 247.582 10.0082H248.345C248.805 10.0082 249.137 10.0033 249.343 9.99354C249.343 9.52392 249.274 9.19127 249.137 8.9956C249.01 8.79992 248.785 8.70208 248.462 8.70208C248.198 8.70208 247.968 8.75589 247.772 8.86351ZM258.224 13.7945C257.432 14.0587 256.546 14.1908 255.568 14.1908C254.472 14.1908 253.65 13.9168 253.102 13.3689C252.564 12.8113 252.295 11.9454 252.295 10.7714C252.295 10.1941 252.374 9.62665 252.53 9.06897C252.687 8.50151 252.853 8.11995 253.029 7.92427C253.234 7.69924 253.636 7.50846 254.232 7.35192C254.839 7.19538 255.465 7.11711 256.111 7.11711C256.786 7.11711 257.466 7.17581 258.151 7.29322C258.131 7.53781 258.097 7.82643 258.048 8.15908C258.009 8.48195 257.965 8.77057 257.916 9.02495C257.309 8.98581 256.737 8.96624 256.199 8.96624C255.671 8.96624 255.333 8.9956 255.186 9.0543C255.108 9.08365 255.035 9.28422 254.966 9.656C254.908 10.0278 254.878 10.3751 254.878 10.698C254.878 11.1285 254.937 11.4611 255.054 11.6959C255.181 11.9209 255.377 12.0775 255.641 12.1655C255.905 12.2536 256.263 12.2976 256.713 12.2976C256.908 12.2976 257.339 12.2781 258.004 12.2389L258.224 13.7945ZM260.372 6.41268C260.039 6.41268 259.751 6.30016 259.506 6.07514C259.271 5.85011 259.154 5.58106 259.154 5.26797C259.154 4.95489 259.271 4.68584 259.506 4.46081C259.751 4.23579 260.039 4.12327 260.372 4.12327C260.704 4.12327 260.988 4.23579 261.223 4.46081C261.458 4.68584 261.575 4.95489 261.575 5.26797C261.575 5.58106 261.458 5.85011 261.223 6.07514C260.988 6.30016 260.704 6.41268 260.372 6.41268ZM259.11 7.24919H261.619V14H259.11V7.24919ZM273.415 7.71881C273.572 7.95362 273.65 8.86351 273.65 10.4485V14H271.141V10.698V9.90549C271.141 9.54349 271.106 9.32824 271.038 9.25976C270.96 9.18149 270.793 9.14235 270.539 9.14235L270.363 9.15703C270.06 9.1766 269.771 9.24508 269.497 9.36249C269.507 9.56795 269.512 9.92995 269.512 10.4485V14H267.002V10.698V9.81743C267.002 9.51414 266.968 9.32824 266.899 9.25976C266.821 9.18149 266.655 9.14235 266.4 9.14235L266.224 9.15703C265.95 9.16681 265.667 9.23041 265.373 9.34781V14H262.864V7.24919H264.903L265.168 8.34987C265.491 7.91938 265.862 7.6063 266.283 7.41062C266.704 7.20516 267.129 7.10243 267.56 7.10243C267.922 7.10243 268.264 7.15624 268.587 7.26387C268.92 7.37149 269.15 7.52314 269.277 7.71881C269.336 7.80687 269.384 7.9683 269.424 8.20311C269.737 7.82154 270.094 7.5427 270.495 7.3666C270.896 7.19049 271.297 7.10243 271.698 7.10243C272.06 7.10243 272.403 7.15624 272.726 7.26387C273.058 7.37149 273.288 7.52314 273.415 7.71881ZM278.911 12.2389C279.155 12.2389 279.61 12.2145 280.276 12.1655C280.364 12.1655 280.525 12.1558 280.76 12.1362L280.98 13.6478C280.227 14 279.248 14.1761 278.045 14.1761C276.92 14.1761 276.054 13.8924 275.447 13.3249C274.85 12.7575 274.552 11.9014 274.552 10.7567C274.552 10.1696 274.625 9.60219 274.772 9.0543C274.929 8.50641 275.105 8.12484 275.301 7.9096C275.506 7.69435 275.888 7.50846 276.445 7.35192C277.003 7.19538 277.556 7.11711 278.104 7.11711C278.984 7.11711 279.645 7.27365 280.085 7.58673C280.525 7.89981 280.814 8.33519 280.951 8.89287C281.088 9.44076 281.156 10.1794 281.156 11.1089C280.491 11.148 279.84 11.1676 279.204 11.1676H277.12C277.12 11.4807 277.184 11.7155 277.311 11.872C277.448 12.0286 277.639 12.1313 277.883 12.1802C278.128 12.2194 278.47 12.2389 278.911 12.2389ZM277.267 8.86351C277.208 8.89287 277.164 9.02006 277.135 9.24508C277.106 9.47011 277.086 9.72449 277.076 10.0082H277.839C278.299 10.0082 278.632 10.0033 278.837 9.99354C278.837 9.52392 278.769 9.19127 278.632 8.9956C278.505 8.79992 278.28 8.70208 277.957 8.70208C277.693 8.70208 277.463 8.75589 277.267 8.86351ZM288.57 7.67479C288.658 7.78241 288.722 8.05146 288.761 8.48195C288.81 8.91243 288.834 9.56795 288.834 10.4485V14H286.325V10.4778V9.87614C286.325 9.56305 286.3 9.36738 286.251 9.28911C286.173 9.19127 285.992 9.14235 285.708 9.14235C285.571 9.14235 285.469 9.14724 285.4 9.15703C285.126 9.16681 284.842 9.23041 284.549 9.34781V14H282.039V7.24919H284.079L284.358 8.37922C285.063 7.52803 285.904 7.10243 286.882 7.10243C287.235 7.10243 287.562 7.15135 287.866 7.24919C288.179 7.34703 288.414 7.48889 288.57 7.67479ZM293.105 11.2263C293.105 11.4024 293.11 11.5883 293.119 11.784C293.129 11.9699 293.159 12.0873 293.207 12.1362C293.276 12.2047 293.516 12.2389 293.927 12.2389L294.426 12.2242C294.514 12.6939 294.558 13.2369 294.558 13.8532C294.372 13.9217 294.098 13.9853 293.736 14.044C293.384 14.1027 293.046 14.1321 292.723 14.1321C292.048 14.1321 291.525 13.9853 291.153 13.6918C290.791 13.3885 290.61 12.9238 290.61 12.2976V8.68741H289.509V7.35192L290.61 7.24919L291.27 5.63487L293.105 5.53214V7.24919H294.66V8.68741H293.105V11.2263ZM298.669 14.1908C297.495 14.1908 296.614 13.9168 296.027 13.3689C295.45 12.8113 295.161 11.9356 295.161 10.742C295.161 10.0865 295.22 9.51414 295.337 9.02495C295.465 8.52597 295.616 8.17865 295.792 7.98297C296.017 7.7286 296.428 7.51824 297.025 7.35192C297.632 7.1856 298.199 7.10243 298.728 7.10243C299.99 7.10243 300.89 7.37149 301.428 7.9096C301.966 8.4477 302.235 9.30868 302.235 10.4925C302.235 11.7644 301.946 12.6988 301.369 13.2956C300.792 13.8924 299.892 14.1908 298.669 14.1908ZM298.713 12.4737C299.094 12.4737 299.344 12.3416 299.461 12.0775C299.579 11.8035 299.637 11.3241 299.637 10.6393C299.637 10.1599 299.613 9.79297 299.564 9.5386C299.515 9.27443 299.422 9.08365 299.285 8.96624C299.158 8.83906 298.957 8.77546 298.684 8.77546C298.292 8.77546 298.067 8.8097 298.008 8.87819C297.93 8.94668 297.867 9.16192 297.818 9.52392C297.769 9.88592 297.744 10.2626 297.744 10.6539C297.744 11.3192 297.808 11.7889 297.935 12.0628C298.072 12.3368 298.331 12.4737 298.713 12.4737ZM108.86 37.1908C107.686 37.1908 106.805 36.9168 106.218 36.3689C105.641 35.8113 105.352 34.9356 105.352 33.742C105.352 33.0865 105.411 32.5141 105.528 32.0249C105.656 31.526 105.807 31.1786 105.983 30.983C106.208 30.7286 106.619 30.5182 107.216 30.3519C107.823 30.1856 108.39 30.1024 108.918 30.1024C110.181 30.1024 111.081 30.3715 111.619 30.9096C112.157 31.4477 112.426 32.3087 112.426 33.4925C112.426 34.7644 112.137 35.6988 111.56 36.2956C110.983 36.8924 110.083 37.1908 108.86 37.1908ZM108.904 35.4737C109.285 35.4737 109.535 35.3416 109.652 35.0775C109.77 34.8035 109.828 34.3241 109.828 33.6393C109.828 33.1599 109.804 32.793 109.755 32.5386C109.706 32.2744 109.613 32.0836 109.476 31.9662C109.349 31.8391 109.148 31.7755 108.874 31.7755C108.483 31.7755 108.258 31.8097 108.199 31.8782C108.121 31.9467 108.057 32.1619 108.009 32.5239C107.96 32.8859 107.935 33.2626 107.935 33.6539C107.935 34.3192 107.999 34.7889 108.126 35.0628C108.263 35.3368 108.522 35.4737 108.904 35.4737ZM117.566 30.1024C117.694 30.1024 117.826 30.1171 117.963 30.1465C118.109 30.1758 118.217 30.2101 118.285 30.2492C118.285 30.4644 118.261 30.8215 118.212 31.3205C118.163 31.8097 118.119 32.157 118.08 32.3625C117.982 32.3527 117.801 32.3478 117.537 32.3478C116.921 32.3478 116.373 32.3821 115.893 32.4505V37H113.384V30.2492H115.482L115.776 31.3352H115.791C116.074 30.9634 116.378 30.665 116.701 30.44C117.023 30.2149 117.312 30.1024 117.566 30.1024ZM122.467 30.1318C122.927 30.1318 123.406 30.166 123.905 30.2345C124.404 30.2932 124.986 30.3764 125.651 30.484V36.3249C125.651 37.724 125.187 38.81 124.257 39.5829C124.14 39.6808 123.876 39.7639 123.465 39.8324C123.054 39.9009 122.589 39.9351 122.07 39.9351C120.945 39.9351 120.055 39.7884 119.399 39.4949C119.39 39.2796 119.404 38.9959 119.443 38.6437C119.492 38.2915 119.541 38.0126 119.59 37.8072C120.295 37.9148 120.984 37.9686 121.66 37.9686C122.002 37.9686 122.291 37.949 122.525 37.9099C122.77 37.8805 122.922 37.8316 122.98 37.7631C123.059 37.6849 123.117 37.3914 123.156 36.8826C123.166 36.7456 123.171 36.5451 123.171 36.2809V35.914C122.927 36.276 122.613 36.5353 122.232 36.6918C121.85 36.8484 121.508 36.9266 121.205 36.9266C120.383 36.9266 119.761 36.6576 119.341 36.1195C118.92 35.5814 118.71 34.7938 118.71 33.7567C118.71 33.0718 118.803 32.431 118.989 31.8342C119.184 31.2276 119.448 30.8069 119.781 30.5721C119.996 30.4253 120.344 30.3177 120.823 30.2492C121.312 30.1709 121.86 30.1318 122.467 30.1318ZM122.158 35.0922C122.52 35.0922 122.848 35.0335 123.142 34.9161V31.8488C123.034 31.8293 122.873 31.8097 122.657 31.7901C122.56 31.7804 122.413 31.7755 122.217 31.7755C121.914 31.7755 121.723 31.8048 121.645 31.8635C121.537 31.9418 121.449 32.1619 121.381 32.5239C121.322 32.8761 121.293 33.2479 121.293 33.6393C121.293 34.1774 121.351 34.5541 121.469 34.7693C121.596 34.9845 121.826 35.0922 122.158 35.0922ZM130.862 37L130.628 36.0754C130.178 36.8092 129.551 37.1761 128.749 37.1761C128.094 37.1761 127.556 36.9951 127.135 36.6331C126.724 36.2613 126.518 35.7428 126.518 35.0775C126.518 34.6666 126.636 34.3095 126.871 34.0062C127.115 33.6931 127.448 33.4729 127.869 33.3458C128.416 33.1892 129.263 33.1012 130.407 33.0816C130.407 32.4359 130.378 32.0934 130.319 32.0543C130.271 32.0152 130.114 31.9956 129.85 31.9956C129.683 31.9956 129.454 32.0054 129.16 32.0249C128.69 32.0445 128.054 32.0983 127.252 32.1864C127.174 31.6581 127.115 31.0906 127.076 30.484C127.595 30.3764 128.138 30.2883 128.705 30.2198C129.273 30.1416 129.781 30.1024 130.231 30.1024C131.014 30.1024 131.601 30.2345 131.992 30.4987C132.384 30.7531 132.638 31.0906 132.756 31.5113C132.873 31.932 132.927 32.4652 132.917 33.1109L132.902 35.2683L132.946 37H130.862ZM129.6 35.5324C129.855 35.5324 130.124 35.4835 130.407 35.3857V34.2997H130.29C129.566 34.2997 129.165 34.3388 129.087 34.4171C129.038 34.466 128.999 34.5394 128.969 34.6372C128.95 34.7351 128.94 34.828 128.94 34.9161C128.94 35.1509 128.994 35.3123 129.101 35.4004C129.209 35.4884 129.375 35.5324 129.6 35.5324ZM140.581 30.6748C140.669 30.7824 140.732 31.0515 140.772 31.4819C140.821 31.9124 140.845 32.5679 140.845 33.4485V37H138.335V33.4778V32.8761C138.335 32.5631 138.311 32.3674 138.262 32.2891C138.184 32.1913 138.003 32.1424 137.719 32.1424C137.582 32.1424 137.479 32.1472 137.411 32.157C137.137 32.1668 136.853 32.2304 136.56 32.3478V37H134.05V30.2492H136.09L136.369 31.3792C137.073 30.528 137.915 30.1024 138.893 30.1024C139.245 30.1024 139.573 30.1514 139.876 30.2492C140.189 30.347 140.424 30.4889 140.581 30.6748ZM143.31 29.4127C142.978 29.4127 142.689 29.3002 142.445 29.0751C142.21 28.8501 142.092 28.5811 142.092 28.268C142.092 27.9549 142.21 27.6858 142.445 27.4608C142.689 27.2358 142.978 27.1233 143.31 27.1233C143.643 27.1233 143.927 27.2358 144.162 27.4608C144.396 27.6858 144.514 27.9549 144.514 28.268C144.514 28.5811 144.396 28.8501 144.162 29.0751C143.927 29.3002 143.643 29.4127 143.31 29.4127ZM142.048 30.2492H144.558V37H142.048V30.2492ZM151.658 35.3563V37H145.597V35.3123L148.855 31.8488H145.685V30.2492H151.584V31.9222L148.341 35.3563H151.658ZM156.674 37L156.439 36.0754C155.989 36.8092 155.363 37.1761 154.561 37.1761C153.905 37.1761 153.367 36.9951 152.946 36.6331C152.535 36.2613 152.33 35.7428 152.33 35.0775C152.33 34.6666 152.447 34.3095 152.682 34.0062C152.927 33.6931 153.259 33.4729 153.68 33.3458C154.228 33.1892 155.074 33.1012 156.219 33.0816C156.219 32.4359 156.19 32.0934 156.131 32.0543C156.082 32.0152 155.925 31.9956 155.661 31.9956C155.495 31.9956 155.265 32.0054 154.971 32.0249C154.502 32.0445 153.866 32.0983 153.064 32.1864C152.985 31.6581 152.927 31.0906 152.888 30.484C153.406 30.3764 153.949 30.2883 154.517 30.2198C155.084 30.1416 155.593 30.1024 156.043 30.1024C156.825 30.1024 157.413 30.2345 157.804 30.4987C158.195 30.7531 158.45 31.0906 158.567 31.5113C158.684 31.932 158.738 32.4652 158.728 33.1109L158.714 35.2683L158.758 37H156.674ZM155.412 35.5324C155.666 35.5324 155.935 35.4835 156.219 35.3857V34.2997H156.101C155.377 34.2997 154.976 34.3388 154.898 34.4171C154.849 34.466 154.81 34.5394 154.781 34.6372C154.761 34.7351 154.751 34.828 154.751 34.9161C154.751 35.1509 154.805 35.3123 154.913 35.4004C155.02 35.4884 155.187 35.5324 155.412 35.5324ZM166.583 28.0919V37H164.514L164.308 35.87C164.113 36.2515 163.824 36.5548 163.442 36.7799C163.061 37.0049 162.63 37.1174 162.151 37.1174C161.388 37.1174 160.776 36.8435 160.317 36.2956C159.866 35.7477 159.641 34.9258 159.641 33.8301C159.641 32.9984 159.739 32.3136 159.935 31.7755C160.131 31.2374 160.361 30.8509 160.625 30.6161C160.791 30.4693 161.129 30.347 161.637 30.2492C162.156 30.1514 162.616 30.1024 163.017 30.1024C163.369 30.1024 163.731 30.1367 164.103 30.2052C164.073 29.7355 164.059 29.4763 164.059 29.4274V28.1946L166.583 28.0919ZM163.252 35.1509C163.516 35.1509 163.79 35.1068 164.073 35.0188V31.8342C163.79 31.795 163.477 31.7755 163.134 31.7755C162.841 31.7755 162.655 31.7999 162.577 31.8488C162.469 31.9271 162.381 32.1521 162.312 32.5239C162.254 32.8859 162.224 33.2675 162.224 33.6686C162.224 34.2654 162.312 34.6617 162.489 34.8574C162.674 35.053 162.929 35.1509 163.252 35.1509ZM171.045 37.1908C169.871 37.1908 168.99 36.9168 168.403 36.3689C167.826 35.8113 167.538 34.9356 167.538 33.742C167.538 33.0865 167.596 32.5141 167.714 32.0249C167.841 31.526 167.992 31.1786 168.169 30.983C168.394 30.7286 168.805 30.5182 169.401 30.3519C170.008 30.1856 170.575 30.1024 171.104 30.1024C172.366 30.1024 173.266 30.3715 173.804 30.9096C174.342 31.4477 174.611 32.3087 174.611 33.4925C174.611 34.7644 174.323 35.6988 173.745 36.2956C173.168 36.8924 172.268 37.1908 171.045 37.1908ZM171.089 35.4737C171.471 35.4737 171.72 35.3416 171.837 35.0775C171.955 34.8035 172.014 34.3241 172.014 33.6393C172.014 33.1599 171.989 32.793 171.94 32.5386C171.891 32.2744 171.798 32.0836 171.661 31.9662C171.534 31.8391 171.334 31.7755 171.06 31.7755C170.668 31.7755 170.443 31.8097 170.385 31.8782C170.306 31.9467 170.243 32.1619 170.194 32.5239C170.145 32.8859 170.12 33.2626 170.12 33.6539C170.12 34.3192 170.184 34.7889 170.311 35.0628C170.448 35.3368 170.707 35.4737 171.089 35.4737ZM184.498 28.0919V37H182.428L182.223 35.87C182.027 36.2515 181.739 36.5548 181.357 36.7799C180.975 37.0049 180.545 37.1174 180.066 37.1174C179.302 37.1174 178.691 36.8435 178.231 36.2956C177.781 35.7477 177.556 34.9258 177.556 33.8301C177.556 32.9984 177.654 32.3136 177.85 31.7755C178.045 31.2374 178.275 30.8509 178.539 30.6161C178.706 30.4693 179.043 30.347 179.552 30.2492C180.07 30.1514 180.53 30.1024 180.931 30.1024C181.284 30.1024 181.646 30.1367 182.017 30.2052C181.988 29.7355 181.973 29.4763 181.973 29.4274V28.1946L184.498 28.0919ZM181.166 35.1509C181.43 35.1509 181.704 35.1068 181.988 35.0188V31.8342C181.704 31.795 181.391 31.7755 181.049 31.7755C180.755 31.7755 180.569 31.7999 180.491 31.8488C180.384 31.9271 180.296 32.1521 180.227 32.5239C180.168 32.8859 180.139 33.2675 180.139 33.6686C180.139 34.2654 180.227 34.6617 180.403 34.8574C180.589 35.053 180.843 35.1509 181.166 35.1509ZM187.008 29.4127C186.675 29.4127 186.386 29.3002 186.142 29.0751C185.907 28.8501 185.79 28.5811 185.79 28.268C185.79 27.9549 185.907 27.6858 186.142 27.4608C186.386 27.2358 186.675 27.1233 187.008 27.1233C187.34 27.1233 187.624 27.2358 187.859 27.4608C188.094 27.6858 188.211 27.9549 188.211 28.268C188.211 28.5811 188.094 28.8501 187.859 29.0751C187.624 29.3002 187.34 29.4127 187.008 29.4127ZM185.746 30.2492H188.255V37H185.746V30.2492ZM193.521 37L193.286 36.0754C192.836 36.8092 192.21 37.1761 191.407 37.1761C190.752 37.1761 190.214 36.9951 189.793 36.6331C189.382 36.2613 189.177 35.7428 189.177 35.0775C189.177 34.6666 189.294 34.3095 189.529 34.0062C189.773 33.6931 190.106 33.4729 190.527 33.3458C191.075 33.1892 191.921 33.1012 193.066 33.0816C193.066 32.4359 193.036 32.0934 192.978 32.0543C192.929 32.0152 192.772 31.9956 192.508 31.9956C192.342 31.9956 192.112 32.0054 191.818 32.0249C191.349 32.0445 190.713 32.0983 189.91 32.1864C189.832 31.6581 189.773 31.0906 189.734 30.484C190.253 30.3764 190.796 30.2883 191.363 30.2198C191.931 30.1416 192.44 30.1024 192.89 30.1024C193.672 30.1024 194.259 30.2345 194.651 30.4987C195.042 30.7531 195.296 31.0906 195.414 31.5113C195.531 31.932 195.585 32.4652 195.575 33.1109L195.561 35.2683L195.605 37H193.521ZM192.259 35.5324C192.513 35.5324 192.782 35.4835 193.066 35.3857V34.2997H192.948C192.224 34.2997 191.823 34.3388 191.745 34.4171C191.696 34.466 191.657 34.5394 191.628 34.6372C191.608 34.7351 191.598 34.828 191.598 34.9161C191.598 35.1509 191.652 35.3123 191.76 35.4004C191.867 35.4884 192.034 35.5324 192.259 35.5324ZM202.937 37L202.702 36.0754C202.252 36.8092 201.626 37.1761 200.823 37.1761C200.168 37.1761 199.63 36.9951 199.209 36.6331C198.798 36.2613 198.593 35.7428 198.593 35.0775C198.593 34.6666 198.71 34.3095 198.945 34.0062C199.189 33.6931 199.522 33.4729 199.943 33.3458C200.491 33.1892 201.337 33.1012 202.482 33.0816C202.482 32.4359 202.452 32.0934 202.394 32.0543C202.345 32.0152 202.188 31.9956 201.924 31.9956C201.758 31.9956 201.528 32.0054 201.234 32.0249C200.765 32.0445 200.129 32.0983 199.326 32.1864C199.248 31.6581 199.189 31.0906 199.15 30.484C199.669 30.3764 200.212 30.2883 200.779 30.2198C201.347 30.1416 201.855 30.1024 202.306 30.1024C203.088 30.1024 203.675 30.2345 204.067 30.4987C204.458 30.7531 204.712 31.0906 204.83 31.5113C204.947 31.932 205.001 32.4652 204.991 33.1109L204.977 35.2683L205.021 37H202.937ZM201.674 35.5324C201.929 35.5324 202.198 35.4835 202.482 35.3857V34.2997H202.364C201.64 34.2997 201.239 34.3388 201.161 34.4171C201.112 34.466 201.073 34.5394 201.043 34.6372C201.024 34.7351 201.014 34.828 201.014 34.9161C201.014 35.1509 201.068 35.3123 201.176 35.4004C201.283 35.4884 201.449 35.5324 201.674 35.5324ZM210.762 30.1024C211.466 30.1024 212.024 30.3372 212.435 30.8069C212.856 31.2667 213.066 32.0739 213.066 33.2284C213.066 34.0893 212.983 34.7938 212.816 35.3416C212.65 35.8798 212.459 36.2369 212.244 36.413C212.029 36.5891 211.652 36.7309 211.114 36.8386C210.586 36.9462 210.038 37 209.47 37C209.304 37 209.025 36.9902 208.634 36.9706V39.0546L206.124 39.1573V30.2492H208.179L208.428 31.2912C208.683 30.9292 209.006 30.6405 209.397 30.4253C209.798 30.2101 210.253 30.1024 210.762 30.1024ZM210.175 35.2096C210.282 35.1313 210.361 34.9112 210.41 34.5492C210.459 34.1774 210.483 33.8252 210.483 33.4925C210.483 32.9446 210.415 32.5386 210.278 32.2744C210.141 32.0103 209.867 31.8782 209.456 31.8782C209.162 31.8782 208.888 31.9075 208.634 31.9662V35.2242L209.045 35.2683C209.172 35.2781 209.353 35.2829 209.588 35.2829C209.92 35.2829 210.116 35.2585 210.175 35.2096ZM217.308 37.1908C216.134 37.1908 215.253 36.9168 214.666 36.3689C214.089 35.8113 213.8 34.9356 213.8 33.742C213.8 33.0865 213.859 32.5141 213.976 32.0249C214.104 31.526 214.255 31.1786 214.431 30.983C214.656 30.7286 215.067 30.5182 215.664 30.3519C216.271 30.1856 216.838 30.1024 217.366 30.1024C218.629 30.1024 219.529 30.3715 220.067 30.9096C220.605 31.4477 220.874 32.3087 220.874 33.4925C220.874 34.7644 220.585 35.6988 220.008 36.2956C219.431 36.8924 218.531 37.1908 217.308 37.1908ZM217.352 35.4737C217.733 35.4737 217.983 35.3416 218.1 35.0775C218.218 34.8035 218.276 34.3241 218.276 33.6393C218.276 33.1599 218.252 32.793 218.203 32.5386C218.154 32.2744 218.061 32.0836 217.924 31.9662C217.797 31.8391 217.596 31.7755 217.322 31.7755C216.931 31.7755 216.706 31.8097 216.647 31.8782C216.569 31.9467 216.505 32.1619 216.457 32.5239C216.408 32.8859 216.383 33.2626 216.383 33.6539C216.383 34.3192 216.447 34.7889 216.574 35.0628C216.711 35.3368 216.97 35.4737 217.352 35.4737ZM216.192 28.9137C216.417 28.6691 216.76 28.3658 217.22 28.0038C217.68 27.6418 218.139 27.3043 218.599 26.9912L219.377 28.1359C219.064 28.3511 218.648 28.6202 218.13 28.9431C217.611 29.2659 217.161 29.5399 216.779 29.7649L216.192 28.9137ZM227.291 34.7106C227.291 35.5814 227.012 36.2075 226.455 36.5891C225.907 36.9706 225.124 37.1614 224.107 37.1614C223.392 37.1614 222.571 37.0587 221.641 36.8532C221.661 36.6576 221.705 36.3787 221.773 36.0167C221.851 35.6449 221.915 35.3612 221.964 35.1655C222.316 35.2242 222.708 35.2732 223.138 35.3123C223.568 35.3416 223.935 35.3563 224.239 35.3563C224.503 35.3563 224.664 35.3416 224.723 35.3123C224.733 35.3025 224.743 35.2781 224.752 35.2389C224.772 35.19 224.782 35.1411 224.782 35.0922C224.782 34.8965 224.659 34.7644 224.415 34.6959C224.337 34.6764 224.038 34.5932 223.52 34.4464C223.001 34.2997 222.575 34.0355 222.243 33.6539C221.92 33.2626 221.758 32.7783 221.758 32.2011C221.758 31.8978 221.827 31.5602 221.964 31.1884C222.101 30.8167 222.248 30.5818 222.404 30.484C222.522 30.4057 222.805 30.3275 223.255 30.2492C223.705 30.1611 224.121 30.1171 224.503 30.1171C225.315 30.1171 226.132 30.1758 226.954 30.2932C226.954 30.4693 226.929 30.7677 226.88 31.1884C226.831 31.5994 226.787 31.8586 226.748 31.9662C225.917 31.8586 225.246 31.8048 224.738 31.8048C224.473 31.8048 224.302 31.8195 224.224 31.8488C224.204 31.8586 224.185 31.888 224.165 31.9369C224.146 31.976 224.136 32.0298 224.136 32.0983C224.136 32.2353 224.18 32.3331 224.268 32.3918C224.356 32.4603 224.586 32.5435 224.958 32.6413C225.398 32.7685 225.775 32.9006 226.088 33.0376C226.411 33.1745 226.69 33.38 226.924 33.6539C227.169 33.9279 227.291 34.2801 227.291 34.7106ZM237.052 28.0919V37H234.983L234.777 35.87C234.582 36.2515 234.293 36.5548 233.911 36.7799C233.53 37.0049 233.099 37.1174 232.62 37.1174C231.857 37.1174 231.245 36.8435 230.786 36.2956C230.335 35.7477 230.11 34.9258 230.11 33.8301C230.11 32.9984 230.208 32.3136 230.404 31.7755C230.6 31.2374 230.83 30.8509 231.094 30.6161C231.26 30.4693 231.598 30.347 232.106 30.2492C232.625 30.1514 233.085 30.1024 233.486 30.1024C233.838 30.1024 234.2 30.1367 234.572 30.2052C234.542 29.7355 234.528 29.4763 234.528 29.4274V28.1946L237.052 28.0919ZM233.721 35.1509C233.985 35.1509 234.259 35.1068 234.542 35.0188V31.8342C234.259 31.795 233.946 31.7755 233.603 31.7755C233.31 31.7755 233.124 31.7999 233.046 31.8488C232.938 31.9271 232.85 32.1521 232.781 32.5239C232.723 32.8859 232.693 33.2675 232.693 33.6686C232.693 34.2654 232.781 34.6617 232.958 34.8574C233.143 35.053 233.398 35.1509 233.721 35.1509ZM239.562 29.4127C239.23 29.4127 238.941 29.3002 238.696 29.0751C238.461 28.8501 238.344 28.5811 238.344 28.268C238.344 27.9549 238.461 27.6858 238.696 27.4608C238.941 27.2358 239.23 27.1233 239.562 27.1233C239.895 27.1233 240.179 27.2358 240.413 27.4608C240.648 27.6858 240.766 27.9549 240.766 28.268C240.766 28.5811 240.648 28.8501 240.413 29.0751C240.179 29.3002 239.895 29.4127 239.562 29.4127ZM238.3 30.2492H240.81V37H238.3V30.2492ZM246.075 37L245.84 36.0754C245.39 36.8092 244.764 37.1761 243.962 37.1761C243.306 37.1761 242.768 36.9951 242.347 36.6331C241.937 36.2613 241.731 35.7428 241.731 35.0775C241.731 34.6666 241.848 34.3095 242.083 34.0062C242.328 33.6931 242.661 33.4729 243.081 33.3458C243.629 33.1892 244.475 33.1012 245.62 33.0816C245.62 32.4359 245.591 32.0934 245.532 32.0543C245.483 32.0152 245.327 31.9956 245.062 31.9956C244.896 31.9956 244.666 32.0054 244.373 32.0249C243.903 32.0445 243.267 32.0983 242.465 32.1864C242.387 31.6581 242.328 31.0906 242.289 30.484C242.807 30.3764 243.35 30.2883 243.918 30.2198C244.485 30.1416 244.994 30.1024 245.444 30.1024C246.227 30.1024 246.814 30.2345 247.205 30.4987C247.596 30.7531 247.851 31.0906 247.968 31.5113C248.086 31.932 248.139 32.4652 248.13 33.1109L248.115 35.2683L248.159 37H246.075ZM244.813 35.5324C245.067 35.5324 245.336 35.4835 245.62 35.3857V34.2997H245.503C244.779 34.2997 244.378 34.3388 244.299 34.4171C244.25 34.466 244.211 34.5394 244.182 34.6372C244.162 34.7351 244.153 34.828 244.153 34.9161C244.153 35.1509 244.206 35.3123 244.314 35.4004C244.422 35.4884 244.588 35.5324 244.813 35.5324Z" fill="#D9D9D9"/>
<path d="M13.4794 13.1512C14.9344 13.3224 15.9721 13.8145 16.5925 14.6275C17.213 15.4192 17.5233 16.382 17.5233 17.516C17.5233 18.222 17.4163 18.896 17.2023 19.5379C16.9884 20.1584 16.7316 20.6933 16.4321 21.1426C16.1325 21.5705 15.8758 21.8486 15.6618 21.977C14.806 22.5333 12.1957 22.8115 7.83091 22.8115H1.60469V4.51794H9.14676C10.8584 4.51794 12.2385 4.61423 13.2869 4.80679C14.3567 4.97796 15.2232 5.38448 15.8865 6.02636C16.5497 6.64684 16.8814 7.59896 16.8814 8.88271C16.8814 9.9953 16.6032 10.8939 16.0469 11.5786C15.512 12.2633 14.6562 12.734 13.4794 12.9907V13.1512ZM10.9119 8.40131C10.698 8.18735 10.4412 8.05897 10.1417 8.01618C9.86352 7.95199 9.41421 7.9199 8.79373 7.9199C8.17324 7.9199 7.70253 7.9306 7.38159 7.95199V11.8674H7.70253C7.80951 11.8674 8.25883 11.8674 9.05048 11.8674C9.84213 11.8674 10.3663 11.814 10.6231 11.707C10.8156 11.6214 10.9868 11.3967 11.1366 11.033C11.3077 10.6693 11.3933 10.2735 11.3933 9.84553C11.3933 9.20365 11.2329 8.72225 10.9119 8.40131ZM11.4575 19.1207C11.6073 18.9923 11.725 18.7569 11.8106 18.4146C11.9175 18.0509 11.971 17.6871 11.971 17.3234C11.971 16.8741 11.9068 16.4569 11.7785 16.0717C11.6715 15.6652 11.5217 15.3764 11.3291 15.2052C11.1366 15.0126 10.8584 14.8843 10.4947 14.8201C10.1524 14.7559 9.56398 14.7238 8.72954 14.7238C8.19464 14.7238 7.74533 14.7345 7.38159 14.7559V19.4095C8.3872 19.4309 9.28583 19.4202 10.0775 19.3774C10.8691 19.3132 11.3291 19.2276 11.4575 19.1207ZM30.1545 18.7997H24.8269L23.8641 22.8115H17.9588L23.8641 4.51794H31.4061L37.0546 22.8115H31.1173L30.1545 18.7997ZM27.4586 8.46549L25.565 15.2373H29.3842L27.587 8.46549H27.4586ZM55.3073 22.8115H49.2416L48.1504 18.1899C48.1076 18.0188 48.0327 17.7299 47.9257 17.3234C47.8401 16.8955 47.7331 16.5852 47.6048 16.3927C47.4764 16.1787 47.2945 16.0397 47.0592 15.9755C46.4601 15.9969 45.5828 16.0076 44.4275 16.0076V22.8115H38.6506V4.67842C41.2395 4.48585 43.6572 4.38957 45.9038 4.38957C47.9364 4.38957 49.5839 4.56074 50.8462 4.90307C52.1086 5.22401 53.05 5.791 53.6705 6.60405C54.3124 7.3957 54.6333 8.48689 54.6333 9.87762C54.6333 11.1828 54.3338 12.2098 53.7347 12.9586C53.1356 13.6861 52.1728 14.1247 50.8462 14.2745V14.4671C51.5951 14.5312 52.2156 14.7773 52.7077 15.2052C53.2212 15.6117 53.5635 16.1359 53.7347 16.7778L55.3073 22.8115ZM44.4275 12.3809C44.62 12.4023 44.9945 12.413 45.5508 12.413C47.1982 12.413 48.1611 12.274 48.4392 11.9958C48.696 11.7391 48.8243 11.14 48.8243 10.1986C48.8243 9.32133 48.589 8.72225 48.1183 8.40131C47.669 8.08037 46.9201 7.9199 45.8717 7.9199C45.6363 7.9199 45.1549 7.94129 44.4275 7.98409V12.3809ZM57.2996 4.51794H63.0765V22.8115H57.2996V4.51794ZM66.1648 4.51794H79.4838V8.36921H71.9417V11.707H78.2963V15.1731H71.9417V18.896H79.4517V22.8115H66.1648V4.51794Z" fill="#55ACEE"/>
<path d="M1.74527 30.7492C1.93365 30.7714 2.06801 30.8351 2.14834 30.9404C2.22868 31.0429 2.26885 31.1675 2.26885 31.3144C2.26885 31.4058 2.255 31.493 2.2273 31.5761C2.19959 31.6565 2.16635 31.7257 2.12757 31.7839C2.08878 31.8393 2.05554 31.8753 2.02784 31.892C1.91703 31.964 1.57905 32 1.01392 32H0.20777V29.6314H1.18429C1.40591 29.6314 1.58459 29.6439 1.72034 29.6688C1.85885 29.691 1.97105 29.7436 2.05692 29.8267C2.1428 29.9071 2.18574 30.0303 2.18574 30.1966C2.18574 30.3406 2.14973 30.457 2.0777 30.5456C2.00845 30.6343 1.89763 30.6952 1.74527 30.7284V30.7492ZM1.41284 30.1342C1.38513 30.1065 1.35189 30.0899 1.31311 30.0844C1.27709 30.076 1.21892 30.0719 1.13858 30.0719C1.05824 30.0719 0.997297 30.0733 0.955743 30.076V30.583H0.997297C1.01115 30.583 1.06932 30.583 1.17182 30.583C1.27432 30.583 1.3422 30.5761 1.37544 30.5622C1.40037 30.5511 1.42253 30.5221 1.44193 30.475C1.46409 30.4279 1.47517 30.3766 1.47517 30.3212C1.47517 30.2381 1.45439 30.1758 1.41284 30.1342ZM1.48348 31.5221C1.50287 31.5055 1.51811 31.475 1.52919 31.4307C1.54304 31.3836 1.54997 31.3365 1.54997 31.2894C1.54997 31.2313 1.54165 31.1772 1.52503 31.1274C1.51118 31.0747 1.49179 31.0373 1.46686 31.0152C1.44193 30.9902 1.40591 30.9736 1.35882 30.9653C1.31449 30.957 1.23831 30.9528 1.13027 30.9528C1.06101 30.9528 1.00284 30.9542 0.955743 30.957V31.5595C1.08595 31.5623 1.2023 31.5609 1.3048 31.5554C1.4073 31.5471 1.46686 31.536 1.48348 31.5221ZM3.70367 31.5014C3.77292 31.5014 3.90174 31.4944 4.09012 31.4806C4.11505 31.4806 4.16076 31.4778 4.22725 31.4723L4.28958 31.9003C4.07627 32 3.79924 32.0499 3.4585 32.0499C3.13992 32.0499 2.89475 31.9695 2.72299 31.8089C2.554 31.6482 2.46951 31.4058 2.46951 31.0817C2.46951 30.9154 2.49029 30.7548 2.53184 30.5996C2.57617 30.4445 2.62603 30.3365 2.68144 30.2755C2.73961 30.2146 2.84765 30.1619 3.00556 30.1176C3.16346 30.0733 3.31998 30.0511 3.47512 30.0511C3.72444 30.0511 3.91144 30.0954 4.0361 30.1841C4.16076 30.2727 4.24248 30.396 4.28127 30.5539C4.32005 30.7091 4.33944 30.9182 4.33944 31.1814C4.15106 31.1925 3.96684 31.198 3.78677 31.198H3.19671C3.19671 31.2867 3.21471 31.3531 3.25073 31.3975C3.28951 31.4418 3.34353 31.4709 3.41279 31.4847C3.48204 31.4958 3.579 31.5014 3.70367 31.5014ZM3.23826 30.5456C3.22164 30.5539 3.20917 30.5899 3.20086 30.6536C3.19255 30.7174 3.18701 30.7894 3.18424 30.8697H3.40032C3.53052 30.8697 3.62471 30.8683 3.68289 30.8656C3.68289 30.7326 3.6635 30.6384 3.62471 30.583C3.5887 30.5276 3.52498 30.4999 3.43356 30.4999C3.35877 30.4999 3.29367 30.5151 3.23826 30.5456ZM6.4387 30.209C6.46363 30.2395 6.48164 30.3157 6.49272 30.4376C6.50657 30.5595 6.5135 30.7451 6.5135 30.9944V32H5.80292V31.0027C5.80292 30.9916 5.80292 30.9376 5.80292 30.8406C5.80292 30.7409 5.796 30.68 5.78215 30.6578C5.77384 30.6467 5.75306 30.6384 5.71982 30.6329C5.68934 30.6273 5.65333 30.6246 5.61178 30.6246L5.54113 30.6287C5.46357 30.6315 5.38323 30.6495 5.30012 30.6827V32H4.58955V29.5068L5.30012 29.4777V29.9639C5.30012 30.1633 5.29319 30.2963 5.27934 30.3628L5.2835 30.3669C5.47188 30.1536 5.69765 30.047 5.96083 30.047C6.06056 30.047 6.15336 30.0608 6.23924 30.0885C6.32789 30.1162 6.39438 30.1564 6.4387 30.209ZM7.98032 32L7.91384 31.7382C7.7864 31.946 7.60911 32.0499 7.38194 32.0499C7.19634 32.0499 7.04397 31.9986 6.92485 31.8961C6.8085 31.7908 6.75032 31.644 6.75032 31.4556C6.75032 31.3393 6.78357 31.2382 6.85005 31.1523C6.91931 31.0636 7.0135 31.0013 7.13262 30.9653C7.28776 30.921 7.52738 30.896 7.85151 30.8905C7.85151 30.7077 7.84319 30.6107 7.82657 30.5996C7.81272 30.5885 7.7684 30.583 7.6936 30.583C7.64651 30.583 7.5814 30.5858 7.4983 30.5913C7.36532 30.5969 7.18526 30.6121 6.95809 30.637C6.93593 30.4874 6.91931 30.3268 6.90823 30.155C7.05505 30.1245 7.2088 30.0996 7.36948 30.0802C7.53015 30.058 7.67421 30.047 7.80164 30.047C8.02326 30.047 8.18948 30.0844 8.30029 30.1592C8.4111 30.2312 8.48313 30.3268 8.51637 30.4459C8.54961 30.565 8.56485 30.716 8.56208 30.8988L8.55792 31.5097L8.57039 32H7.98032ZM7.62296 31.5845C7.69499 31.5845 7.77117 31.5706 7.85151 31.5429V31.2354H7.81826C7.61326 31.2354 7.49968 31.2465 7.47752 31.2686C7.46367 31.2825 7.45259 31.3033 7.44428 31.331C7.43874 31.3587 7.43596 31.385 7.43596 31.4099C7.43596 31.4764 7.4512 31.5221 7.48167 31.5471C7.51215 31.572 7.55924 31.5845 7.62296 31.5845ZM10.1129 30.0885H10.8567L10.275 32H9.29015L8.70839 30.0885H9.45221L9.76387 31.5554H9.80542L10.1129 30.0885ZM11.3913 29.8517C11.2971 29.8517 11.2154 29.8198 11.1462 29.7561C11.0797 29.6924 11.0464 29.6162 11.0464 29.5275C11.0464 29.4389 11.0797 29.3627 11.1462 29.299C11.2154 29.2353 11.2971 29.2034 11.3913 29.2034C11.4855 29.2034 11.5659 29.2353 11.6323 29.299C11.6988 29.3627 11.7321 29.4389 11.7321 29.5275C11.7321 29.6162 11.6988 29.6924 11.6323 29.7561C11.5659 29.8198 11.4855 29.8517 11.3913 29.8517ZM11.034 30.0885H11.7445V32H11.034V30.0885ZM13.0194 32.054C12.6869 32.054 12.4376 31.9765 12.2714 31.8213C12.1079 31.6634 12.0262 31.4155 12.0262 31.0775C12.0262 30.8919 12.0428 30.7298 12.0761 30.5913C12.1121 30.45 12.155 30.3517 12.2049 30.2963C12.2686 30.2243 12.385 30.1647 12.554 30.1176C12.7257 30.0705 12.8864 30.047 13.036 30.047C13.3934 30.047 13.6482 30.1231 13.8006 30.2755C13.9529 30.4279 14.0291 30.6717 14.0291 31.0069C14.0291 31.367 13.9474 31.6316 13.784 31.8005C13.6205 31.9695 13.3657 32.054 13.0194 32.054ZM13.0318 31.5678C13.1399 31.5678 13.2105 31.5304 13.2438 31.4556C13.277 31.3781 13.2936 31.2423 13.2936 31.0484C13.2936 30.9127 13.2867 30.8088 13.2728 30.7368C13.259 30.662 13.2327 30.6079 13.1939 30.5747C13.1579 30.5387 13.1011 30.5207 13.0235 30.5207C12.9127 30.5207 12.849 30.5304 12.8324 30.5498C12.8102 30.5692 12.7922 30.6301 12.7784 30.7326C12.7645 30.8351 12.7576 30.9418 12.7576 31.0526C12.7576 31.2409 12.7756 31.3739 12.8116 31.4515C12.8504 31.5291 12.9238 31.5678 13.0318 31.5678ZM15.4847 30.047C15.5207 30.047 15.5581 30.0511 15.5969 30.0594C15.6384 30.0677 15.6689 30.0774 15.6883 30.0885C15.6883 30.1495 15.6813 30.2506 15.6675 30.3919C15.6536 30.5304 15.6412 30.6287 15.6301 30.6869C15.6024 30.6841 15.5511 30.6827 15.4763 30.6827C15.3018 30.6827 15.1467 30.6924 15.0109 30.7118V32H14.3004V30.0885H14.8946L14.9777 30.396H14.9819C15.0622 30.2907 15.1481 30.2063 15.2395 30.1425C15.3309 30.0788 15.4126 30.047 15.4847 30.047ZM15.8458 30.6329H17.0924V31.2271H15.8458V30.6329ZM19.3079 29.4777V32H18.722L18.6638 31.68C18.6084 31.7881 18.5267 31.874 18.4187 31.9377C18.3106 32.0014 18.1887 32.0332 18.053 32.0332C17.8369 32.0332 17.6638 31.9557 17.5336 31.8005C17.4061 31.6454 17.3424 31.4127 17.3424 31.1024C17.3424 30.867 17.3701 30.673 17.4255 30.5207C17.4809 30.3683 17.546 30.2589 17.6208 30.1924C17.6679 30.1508 17.7635 30.1162 17.9076 30.0885C18.0544 30.0608 18.1846 30.047 18.2982 30.047C18.3979 30.047 18.5004 30.0567 18.6057 30.076C18.5973 29.9431 18.5932 29.8697 18.5932 29.8558V29.5068L19.3079 29.4777ZM18.3646 31.4764C18.4394 31.4764 18.517 31.464 18.5973 31.439V30.5373C18.517 30.5262 18.4284 30.5207 18.3314 30.5207C18.2483 30.5207 18.1957 30.5276 18.1735 30.5415C18.143 30.5636 18.1181 30.6273 18.0987 30.7326C18.0821 30.8351 18.0738 30.9431 18.0738 31.0567C18.0738 31.2257 18.0987 31.3379 18.1486 31.3933C18.2012 31.4487 18.2732 31.4764 18.3646 31.4764ZM20.8331 30.047C20.8691 30.047 20.9065 30.0511 20.9453 30.0594C20.9869 30.0677 21.0173 30.0774 21.0367 30.0885C21.0367 30.1495 21.0298 30.2506 21.016 30.3919C21.0021 30.5304 20.9896 30.6287 20.9786 30.6869C20.9509 30.6841 20.8996 30.6827 20.8248 30.6827C20.6503 30.6827 20.4951 30.6924 20.3594 30.7118V32H19.6488V30.0885H20.243L20.3262 30.396H20.3303C20.4107 30.2907 20.4965 30.2063 20.5879 30.1425C20.6794 30.0788 20.7611 30.047 20.8331 30.047ZM21.5932 29.8517C21.499 29.8517 21.4173 29.8198 21.348 29.7561C21.2815 29.6924 21.2483 29.6162 21.2483 29.5275C21.2483 29.4389 21.2815 29.3627 21.348 29.299C21.4173 29.2353 21.499 29.2034 21.5932 29.2034C21.6874 29.2034 21.7677 29.2353 21.8342 29.299C21.9007 29.3627 21.9339 29.4389 21.9339 29.5275C21.9339 29.6162 21.9007 29.6924 21.8342 29.7561C21.7677 29.8198 21.6874 29.8517 21.5932 29.8517ZM21.2358 30.0885H21.9464V32H21.2358V30.0885ZM23.5287 30.0885H24.2725L23.6908 32H22.7059L22.1242 30.0885H22.868L23.1797 31.5554H23.2212L23.5287 30.0885ZM25.5966 31.5014C25.6659 31.5014 25.7947 31.4944 25.9831 31.4806C26.008 31.4806 26.0537 31.4778 26.1202 31.4723L26.1825 31.9003C25.9692 32 25.6922 32.0499 25.3515 32.0499C25.0329 32.0499 24.7877 31.9695 24.616 31.8089C24.447 31.6482 24.3625 31.4058 24.3625 31.0817C24.3625 30.9154 24.3833 30.7548 24.4248 30.5996C24.4691 30.4445 24.519 30.3365 24.5744 30.2755C24.6326 30.2146 24.7406 30.1619 24.8985 30.1176C25.0564 30.0733 25.213 30.0511 25.3681 30.0511C25.6174 30.0511 25.8044 30.0954 25.9291 30.1841C26.0537 30.2727 26.1355 30.396 26.1742 30.5539C26.213 30.7091 26.2324 30.9182 26.2324 31.1814C26.044 31.1925 25.8598 31.198 25.6797 31.198H25.0897C25.0897 31.2867 25.1077 31.3531 25.1437 31.3975C25.1825 31.4418 25.2365 31.4709 25.3058 31.4847C25.375 31.4958 25.472 31.5014 25.5966 31.5014ZM25.1312 30.5456C25.1146 30.5539 25.1021 30.5899 25.0938 30.6536C25.0855 30.7174 25.08 30.7894 25.0772 30.8697H25.2933C25.4235 30.8697 25.5177 30.8683 25.5759 30.8656C25.5759 30.7326 25.5565 30.6384 25.5177 30.583C25.4817 30.5276 25.418 30.4999 25.3265 30.4999C25.2517 30.4999 25.1866 30.5151 25.1312 30.5456ZM28.3317 30.209C28.3566 30.2395 28.3746 30.3157 28.3857 30.4376C28.3995 30.5595 28.4065 30.7451 28.4065 30.9944V32H27.6959V31.0027V30.8323C27.6959 30.7437 27.689 30.6883 27.6751 30.6661C27.653 30.6384 27.6017 30.6246 27.5214 30.6246C27.4826 30.6246 27.4535 30.6259 27.4341 30.6287C27.3565 30.6315 27.2762 30.6495 27.1931 30.6827V32H26.4825V30.0885H27.0601L27.1391 30.4085C27.3385 30.1675 27.5768 30.047 27.8538 30.047C27.9535 30.047 28.0463 30.0608 28.1322 30.0885C28.2209 30.1162 28.2873 30.1564 28.3317 30.209ZM30.7683 31.4806H30.0785L29.9539 32H29.1893L29.9539 29.6314H30.9304L31.6617 32H30.893L30.7683 31.4806ZM30.4193 30.1425L30.1741 31.0193H30.6686L30.4359 30.1425H30.4193ZM33.1441 30.047C33.3435 30.047 33.5014 30.1134 33.6178 30.2464C33.7369 30.3766 33.7965 30.6052 33.7965 30.9321C33.7965 31.1758 33.7729 31.3753 33.7258 31.5304C33.6787 31.6828 33.6247 31.7839 33.5638 31.8338C33.5028 31.8836 33.3962 31.9238 33.2438 31.9543C33.0942 31.9848 32.9391 32 32.7784 32C32.7313 32 32.6524 31.9972 32.5416 31.9917V32.5818L31.831 32.6108V30.0885H32.4127L32.4834 30.3835C32.5554 30.281 32.6468 30.1993 32.7576 30.1384C32.8712 30.0774 33 30.047 33.1441 30.047ZM32.9779 31.493C33.0083 31.4709 33.0305 31.4085 33.0444 31.306C33.0582 31.2008 33.0651 31.101 33.0651 31.0069C33.0651 30.8517 33.0457 30.7368 33.007 30.662C32.9682 30.5872 32.8906 30.5498 32.7743 30.5498C32.6911 30.5498 32.6136 30.5581 32.5416 30.5747V31.4972L32.6579 31.5097C32.6939 31.5124 32.7452 31.5138 32.8117 31.5138C32.9058 31.5138 32.9612 31.5069 32.9779 31.493ZM35.3882 30.047C35.5876 30.047 35.7455 30.1134 35.8619 30.2464C35.981 30.3766 36.0406 30.6052 36.0406 30.9321C36.0406 31.1758 36.017 31.3753 35.9699 31.5304C35.9228 31.6828 35.8688 31.7839 35.8079 31.8338C35.7469 31.8836 35.6403 31.9238 35.4879 31.9543C35.3383 31.9848 35.1832 32 35.0225 32C34.9754 32 34.8964 31.9972 34.7856 31.9917V32.5818L34.0751 32.6108V30.0885H34.6568L34.7275 30.3835C34.7995 30.281 34.8909 30.1993 35.0017 30.1384C35.1153 30.0774 35.2441 30.047 35.3882 30.047ZM35.2219 31.493C35.2524 31.4709 35.2746 31.4085 35.2884 31.306C35.3023 31.2008 35.3092 31.101 35.3092 31.0069C35.3092 30.8517 35.2898 30.7368 35.251 30.662C35.2123 30.5872 35.1347 30.5498 35.0183 30.5498C34.9352 30.5498 34.8577 30.5581 34.7856 30.5747V31.4972L34.902 31.5097C34.938 31.5124 34.9892 31.5138 35.0557 31.5138C35.1499 31.5138 35.2053 31.5069 35.2219 31.493ZM37.5034 30.047C37.5394 30.047 37.5768 30.0511 37.6156 30.0594C37.6572 30.0677 37.6877 30.0774 37.707 30.0885C37.707 30.1495 37.7001 30.2506 37.6863 30.3919C37.6724 30.5304 37.6599 30.6287 37.6489 30.6869C37.6212 30.6841 37.5699 30.6827 37.4951 30.6827C37.3206 30.6827 37.1655 30.6924 37.0297 30.7118V32H36.3191V30.0885H36.9134L36.9965 30.396H37.0006C37.081 30.2907 37.1668 30.2063 37.2583 30.1425C37.3497 30.0788 37.4314 30.047 37.5034 30.047ZM38.8161 32.054C38.4837 32.054 38.2344 31.9765 38.0682 31.8213C37.9047 31.6634 37.823 31.4155 37.823 31.0775C37.823 30.8919 37.8396 30.7298 37.8729 30.5913C37.9089 30.45 37.9518 30.3517 38.0017 30.2963C38.0654 30.2243 38.1818 30.1647 38.3507 30.1176C38.5225 30.0705 38.6832 30.047 38.8328 30.047C39.1901 30.047 39.445 30.1231 39.5974 30.2755C39.7497 30.4279 39.8259 30.6717 39.8259 31.0069C39.8259 31.367 39.7442 31.6316 39.5807 31.8005C39.4173 31.9695 39.1624 32.054 38.8161 32.054ZM38.8286 31.5678C38.9367 31.5678 39.0073 31.5304 39.0405 31.4556C39.0738 31.3781 39.0904 31.2423 39.0904 31.0484C39.0904 30.9127 39.0835 30.8088 39.0696 30.7368C39.0558 30.662 39.0295 30.6079 38.9907 30.5747C38.9547 30.5387 38.8979 30.5207 38.8203 30.5207C38.7095 30.5207 38.6458 30.5304 38.6292 30.5498C38.607 30.5692 38.589 30.6301 38.5751 30.7326C38.5613 30.8351 38.5544 30.9418 38.5544 31.0526C38.5544 31.2409 38.5724 31.3739 38.6084 31.4515C38.6472 31.5291 38.7206 31.5678 38.8286 31.5678ZM41.2357 32L41.1692 31.7382C41.0418 31.946 40.8645 32.0499 40.6373 32.0499C40.4517 32.0499 40.2994 31.9986 40.1803 31.8961C40.0639 31.7908 40.0057 31.644 40.0057 31.4556C40.0057 31.3393 40.039 31.2382 40.1055 31.1523C40.1747 31.0636 40.2689 31.0013 40.388 30.9653C40.5432 30.921 40.7828 30.896 41.1069 30.8905C41.1069 30.7077 41.0986 30.6107 41.082 30.5996C41.0681 30.5885 41.0238 30.583 40.949 30.583C40.9019 30.583 40.8368 30.5858 40.7537 30.5913C40.6207 30.5969 40.4407 30.6121 40.2135 30.637C40.1913 30.4874 40.1747 30.3268 40.1636 30.155C40.3105 30.1245 40.4642 30.0996 40.6249 30.0802C40.7856 30.058 40.9296 30.047 41.057 30.047C41.2787 30.047 41.4449 30.0844 41.5557 30.1592C41.6665 30.2312 41.7385 30.3268 41.7718 30.4459C41.805 30.565 41.8203 30.716 41.8175 30.8988L41.8133 31.5097L41.8258 32H41.2357ZM40.8784 31.5845C40.9504 31.5845 41.0266 31.5706 41.1069 31.5429V31.2354H41.0737C40.8687 31.2354 40.7551 31.2465 40.7329 31.2686C40.7191 31.2825 40.708 31.3033 40.6997 31.331C40.6941 31.3587 40.6914 31.385 40.6914 31.4099C40.6914 31.4764 40.7066 31.5221 40.7371 31.5471C40.7675 31.572 40.8146 31.5845 40.8784 31.5845ZM43.7465 31.9418C43.5221 32.0166 43.2714 32.054 42.9943 32.054C42.6841 32.054 42.4514 31.9765 42.2962 31.8213C42.1439 31.6634 42.0677 31.4182 42.0677 31.0858C42.0677 30.9224 42.0898 30.7617 42.1342 30.6038C42.1785 30.4431 42.2256 30.3351 42.2755 30.2797C42.3336 30.2159 42.4472 30.1619 42.6162 30.1176C42.788 30.0733 42.9652 30.0511 43.1481 30.0511C43.3392 30.0511 43.5318 30.0677 43.7257 30.101C43.7201 30.1702 43.7105 30.252 43.6966 30.3461C43.6855 30.4376 43.6731 30.5193 43.6592 30.5913C43.4874 30.5802 43.3254 30.5747 43.173 30.5747C43.0234 30.5747 42.9279 30.583 42.8863 30.5996C42.8641 30.6079 42.8434 30.6647 42.824 30.77C42.8073 30.8753 42.799 30.9736 42.799 31.065C42.799 31.1869 42.8157 31.2811 42.8489 31.3476C42.8849 31.4113 42.9403 31.4556 43.0151 31.4806C43.0899 31.5055 43.191 31.518 43.3185 31.518C43.3739 31.518 43.4958 31.5124 43.6841 31.5014L43.7465 31.9418ZM45.8339 30.209C45.8588 30.2395 45.8768 30.3157 45.8879 30.4376C45.9017 30.5595 45.9087 30.7451 45.9087 30.9944V32H45.1981V31.0027C45.1981 30.9916 45.1981 30.9376 45.1981 30.8406C45.1981 30.7409 45.1912 30.68 45.1773 30.6578C45.169 30.6467 45.1482 30.6384 45.115 30.6329C45.0845 30.6273 45.0485 30.6246 45.007 30.6246L44.9363 30.6287C44.8587 30.6315 44.7784 30.6495 44.6953 30.6827V32H43.9847V29.5068L44.6953 29.4777V29.9639C44.6953 30.1633 44.6884 30.2963 44.6745 30.3628L44.6787 30.3669C44.8671 30.1536 45.0928 30.047 45.356 30.047C45.4557 30.047 45.5485 30.0608 45.6344 30.0885C45.7231 30.1162 45.7896 30.1564 45.8339 30.209ZM47.7428 31.2146C47.7428 31.2645 47.7442 31.3171 47.747 31.3725C47.7497 31.4252 47.758 31.4584 47.7719 31.4723C47.7913 31.4917 47.8591 31.5014 47.9755 31.5014L48.1168 31.4972C48.1417 31.6302 48.1542 31.7839 48.1542 31.9584C48.1015 31.9778 48.024 31.9958 47.9215 32.0125C47.8217 32.0291 47.7262 32.0374 47.6348 32.0374C47.4436 32.0374 47.2954 31.9958 47.1901 31.9127C47.0876 31.8269 47.0364 31.6953 47.0364 31.518V30.4957H46.7247V30.1176L47.0364 30.0885L47.2234 29.6314L47.7428 29.6023V30.0885H48.1833V30.4957H47.7428V31.2146ZM49.3183 32.054C48.9858 32.054 48.7365 31.9765 48.5703 31.8213C48.4069 31.6634 48.3251 31.4155 48.3251 31.0775C48.3251 30.8919 48.3418 30.7298 48.375 30.5913C48.411 30.45 48.454 30.3517 48.5038 30.2963C48.5675 30.2243 48.6839 30.1647 48.8529 30.1176C49.0246 30.0705 49.1853 30.047 49.3349 30.047C49.6923 30.047 49.9471 30.1231 50.0995 30.2755C50.2519 30.4279 50.328 30.6717 50.328 31.0069C50.328 31.367 50.2463 31.6316 50.0829 31.8005C49.9194 31.9695 49.6646 32.054 49.3183 32.054ZM49.3307 31.5678C49.4388 31.5678 49.5094 31.5304 49.5427 31.4556C49.5759 31.3781 49.5925 31.2423 49.5925 31.0484C49.5925 30.9127 49.5856 30.8088 49.5718 30.7368C49.5579 30.662 49.5316 30.6079 49.4928 30.5747C49.4568 30.5387 49.4 30.5207 49.3224 30.5207C49.2116 30.5207 49.1479 30.5304 49.1313 30.5498C49.1091 30.5692 49.0911 30.6301 49.0773 30.7326C49.0634 30.8351 49.0565 30.9418 49.0565 31.0526C49.0565 31.2409 49.0745 31.3739 49.1105 31.4515C49.1493 31.5291 49.2227 31.5678 49.3307 31.5678ZM53.4183 32H52.6329L52.4916 31.4016C52.4861 31.3795 52.4764 31.3421 52.4625 31.2894C52.4514 31.234 52.4376 31.1939 52.421 31.1689C52.4043 31.1412 52.3808 31.1232 52.3503 31.1149C52.2728 31.1177 52.1592 31.1191 52.0096 31.1191V32H51.2616V29.6522C51.5968 29.6273 51.9099 29.6148 52.2007 29.6148C52.4639 29.6148 52.6772 29.637 52.8407 29.6813C53.0041 29.7228 53.126 29.7963 53.2063 29.9015C53.2894 30.004 53.331 30.1453 53.331 30.3254C53.331 30.4944 53.2922 30.6273 53.2147 30.7243C53.1371 30.8185 53.0124 30.8753 52.8407 30.8947V30.9196C52.9376 30.9279 53.018 30.9598 53.0817 31.0152C53.1482 31.0678 53.1925 31.1357 53.2147 31.2188L53.4183 32ZM52.0096 30.6495C52.0345 30.6523 52.083 30.6536 52.155 30.6536C52.3683 30.6536 52.493 30.6356 52.529 30.5996C52.5623 30.5664 52.5789 30.4888 52.5789 30.3669C52.5789 30.2533 52.5484 30.1758 52.4875 30.1342C52.4293 30.0927 52.3323 30.0719 52.1966 30.0719C52.1661 30.0719 52.1038 30.0747 52.0096 30.0802V30.6495ZM54.794 31.5014C54.8633 31.5014 54.9921 31.4944 55.1805 31.4806C55.2054 31.4806 55.2511 31.4778 55.3176 31.4723L55.3799 31.9003C55.1666 32 54.8896 32.0499 54.5489 32.0499C54.2303 32.0499 53.9851 31.9695 53.8134 31.8089C53.6444 31.6482 53.5599 31.4058 53.5599 31.0817C53.5599 30.9154 53.5807 30.7548 53.6222 30.5996C53.6665 30.4445 53.7164 30.3365 53.7718 30.2755C53.83 30.2146 53.938 30.1619 54.0959 30.1176C54.2538 30.0733 54.4103 30.0511 54.5655 30.0511C54.8148 30.0511 55.0018 30.0954 55.1265 30.1841C55.2511 30.2727 55.3328 30.396 55.3716 30.5539C55.4104 30.7091 55.4298 30.9182 55.4298 31.1814C55.2414 31.1925 55.0572 31.198 54.8771 31.198H54.2871C54.2871 31.2867 54.3051 31.3531 54.3411 31.3975C54.3799 31.4418 54.4339 31.4709 54.5032 31.4847C54.5724 31.4958 54.6694 31.5014 54.794 31.5014ZM54.3286 30.5456C54.312 30.5539 54.2995 30.5899 54.2912 30.6536C54.2829 30.7174 54.2774 30.7894 54.2746 30.8697H54.4907C54.6209 30.8697 54.7151 30.8683 54.7733 30.8656C54.7733 30.7326 54.7539 30.6384 54.7151 30.583C54.6791 30.5276 54.6153 30.4999 54.5239 30.4999C54.4491 30.4999 54.384 30.5151 54.3286 30.5456ZM56.8185 32L56.752 31.7382C56.6246 31.946 56.4473 32.0499 56.2201 32.0499C56.0345 32.0499 55.8821 31.9986 55.763 31.8961C55.6467 31.7908 55.5885 31.644 55.5885 31.4556C55.5885 31.3393 55.6217 31.2382 55.6882 31.1523C55.7575 31.0636 55.8517 31.0013 55.9708 30.9653C56.1259 30.921 56.3655 30.896 56.6897 30.8905C56.6897 30.7077 56.6814 30.6107 56.6647 30.5996C56.6509 30.5885 56.6066 30.583 56.5318 30.583C56.4847 30.583 56.4196 30.5858 56.3365 30.5913C56.2035 30.5969 56.0234 30.6121 55.7963 30.637C55.7741 30.4874 55.7575 30.3268 55.7464 30.155C55.8932 30.1245 56.047 30.0996 56.2076 30.0802C56.3683 30.058 56.5124 30.047 56.6398 30.047C56.8614 30.047 57.0276 30.0844 57.1385 30.1592C57.2493 30.2312 57.3213 30.3268 57.3545 30.4459C57.3878 30.565 57.403 30.716 57.4002 30.8988L57.3961 31.5097L57.4086 32H56.8185ZM56.4611 31.5845C56.5332 31.5845 56.6093 31.5706 56.6897 31.5429V31.2354H56.6564C56.4514 31.2354 56.3378 31.2465 56.3157 31.2686C56.3018 31.2825 56.2908 31.3033 56.2824 31.331C56.2769 31.3587 56.2741 31.385 56.2741 31.4099C56.2741 31.4764 56.2894 31.5221 56.3198 31.5471C56.3503 31.572 56.3974 31.5845 56.4611 31.5845ZM57.7336 29.5068L58.4441 29.4777V32H57.7336V29.5068ZM59.1663 29.8517C59.0721 29.8517 58.9904 29.8198 58.9211 29.7561C58.8546 29.6924 58.8214 29.6162 58.8214 29.5275C58.8214 29.4389 58.8546 29.3627 58.9211 29.299C58.9904 29.2353 59.0721 29.2034 59.1663 29.2034C59.2605 29.2034 59.3408 29.2353 59.4073 29.299C59.4738 29.3627 59.507 29.4389 59.507 29.5275C59.507 29.6162 59.4738 29.6924 59.4073 29.7561C59.3408 29.8198 59.2605 29.8517 59.1663 29.8517ZM58.8089 30.0885H59.5195V32H58.8089V30.0885ZM61.4176 31.3518C61.4176 31.5983 61.3387 31.7756 61.1808 31.8836C61.0257 31.9917 60.804 32.0457 60.5159 32.0457C60.3137 32.0457 60.081 32.0166 59.8178 31.9584C59.8234 31.903 59.8358 31.8241 59.8552 31.7216C59.8774 31.6163 59.8954 31.536 59.9092 31.4806C60.009 31.4972 60.1198 31.511 60.2417 31.5221C60.3636 31.5304 60.4674 31.5346 60.5533 31.5346C60.6281 31.5346 60.6738 31.5304 60.6904 31.5221C60.6932 31.5194 60.696 31.5124 60.6988 31.5014C60.7043 31.4875 60.7071 31.4736 60.7071 31.4598C60.7071 31.4044 60.6724 31.367 60.6032 31.3476C60.581 31.3421 60.4965 31.3185 60.3497 31.277C60.2029 31.2354 60.0824 31.1606 59.9882 31.0526C59.8968 30.9418 59.8511 30.8046 59.8511 30.6412C59.8511 30.5553 59.8704 30.4597 59.9092 30.3545C59.948 30.2492 59.9896 30.1827 60.0339 30.155C60.0671 30.1328 60.1475 30.1107 60.2749 30.0885C60.4023 30.0636 60.5201 30.0511 60.6281 30.0511C60.858 30.0511 61.0894 30.0677 61.3221 30.101C61.3221 30.1508 61.3151 30.2353 61.3013 30.3545C61.2874 30.4708 61.275 30.5442 61.2639 30.5747C61.0284 30.5442 60.8387 30.529 60.6946 30.529C60.6198 30.529 60.5713 30.5331 60.5492 30.5415C60.5436 30.5442 60.5381 30.5525 60.5325 30.5664C60.527 30.5775 60.5242 30.5927 60.5242 30.6121C60.5242 30.6509 60.5367 30.6786 60.5616 30.6952C60.5866 30.7146 60.6517 30.7381 60.7569 30.7658C60.8816 30.8019 60.9883 30.8393 61.0769 30.878C61.1683 30.9168 61.2473 30.975 61.3138 31.0526C61.383 31.1301 61.4176 31.2299 61.4176 31.3518ZM62.5342 31.2146C62.5342 31.2645 62.5356 31.3171 62.5384 31.3725C62.5412 31.4252 62.5495 31.4584 62.5633 31.4723C62.5827 31.4917 62.6506 31.5014 62.7669 31.5014L62.9082 31.4972C62.9332 31.6302 62.9456 31.7839 62.9456 31.9584C62.893 31.9778 62.8154 31.9958 62.7129 32.0125C62.6132 32.0291 62.5176 32.0374 62.4262 32.0374C62.2351 32.0374 62.0868 31.9958 61.9816 31.9127C61.8791 31.8269 61.8278 31.6953 61.8278 31.518V30.4957H61.5162V30.1176L61.8278 30.0885L62.0148 29.6314L62.5342 29.6023V30.0885H62.9747V30.4957H62.5342V31.2146ZM63.5571 29.8517C63.4629 29.8517 63.3811 29.8198 63.3119 29.7561C63.2454 29.6924 63.2122 29.6162 63.2122 29.5275C63.2122 29.4389 63.2454 29.3627 63.3119 29.299C63.3811 29.2353 63.4629 29.2034 63.5571 29.2034C63.6512 29.2034 63.7316 29.2353 63.7981 29.299C63.8646 29.3627 63.8978 29.4389 63.8978 29.5275C63.8978 29.6162 63.8646 29.6924 63.7981 29.7561C63.7316 29.8198 63.6512 29.8517 63.5571 29.8517ZM63.1997 30.0885H63.9103V32H63.1997V30.0885ZM65.8707 31.9418C65.6464 32.0166 65.3956 32.054 65.1186 32.054C64.8083 32.054 64.5756 31.9765 64.4205 31.8213C64.2681 31.6634 64.192 31.4182 64.192 31.0858C64.192 30.9224 64.2141 30.7617 64.2584 30.6038C64.3028 30.4431 64.3499 30.3351 64.3997 30.2797C64.4579 30.2159 64.5715 30.1619 64.7405 30.1176C64.9122 30.0733 65.0895 30.0511 65.2724 30.0511C65.4635 30.0511 65.656 30.0677 65.85 30.101C65.8444 30.1702 65.8347 30.252 65.8209 30.3461C65.8098 30.4376 65.7973 30.5193 65.7835 30.5913C65.6117 30.5802 65.4497 30.5747 65.2973 30.5747C65.1477 30.5747 65.0521 30.583 65.0106 30.5996C64.9884 30.6079 64.9676 30.6647 64.9482 30.77C64.9316 30.8753 64.9233 30.9736 64.9233 31.065C64.9233 31.1869 64.9399 31.2811 64.9732 31.3476C65.0092 31.4113 65.0646 31.4556 65.1394 31.4806C65.2142 31.5055 65.3153 31.518 65.4427 31.518C65.4981 31.518 65.62 31.5124 65.8084 31.5014L65.8707 31.9418ZM0.211926 36.6314H0.959898V39H0.211926V36.6314ZM3.19229 37.209C3.21722 37.2395 3.23523 37.3157 3.24631 37.4376C3.26016 37.5595 3.26709 37.7451 3.26709 37.9944V39H2.55651V38.0027V37.8323C2.55651 37.7437 2.54959 37.6883 2.53574 37.6661C2.51358 37.6384 2.46233 37.6246 2.38199 37.6246C2.3432 37.6246 2.31412 37.6259 2.29472 37.6287C2.21716 37.6315 2.13682 37.6495 2.05371 37.6827V39H1.34314V37.0885H1.92074L1.99969 37.4085C2.19915 37.1675 2.43739 37.047 2.71442 37.047C2.81415 37.047 2.90695 37.0608 2.99283 37.0885C3.08148 37.1162 3.14797 37.1564 3.19229 37.209ZM5.49851 36.4777V39H4.9126L4.85442 38.68C4.79902 38.7881 4.71729 38.874 4.60925 38.9377C4.50121 39.0014 4.37932 39.0332 4.24358 39.0332C4.0275 39.0332 3.85435 38.9557 3.72415 38.8005C3.59672 38.6454 3.533 38.4127 3.533 38.1024C3.533 37.867 3.5607 37.673 3.61611 37.5207C3.67152 37.3683 3.73662 37.2589 3.81141 37.1924C3.85851 37.1508 3.95408 37.1162 4.09814 37.0885C4.24496 37.0608 4.37516 37.047 4.48874 37.047C4.58847 37.047 4.69097 37.0567 4.79624 37.076C4.78793 36.9431 4.78378 36.8697 4.78378 36.8558V36.5068L5.49851 36.4777ZM4.55523 38.4764C4.63003 38.4764 4.7076 38.464 4.78793 38.439V37.5373C4.7076 37.5262 4.61895 37.5207 4.52199 37.5207C4.43888 37.5207 4.38624 37.5276 4.36408 37.5415C4.33361 37.5636 4.30868 37.6273 4.28929 37.7326C4.27266 37.8351 4.26435 37.9431 4.26435 38.0567C4.26435 38.2257 4.28929 38.3379 4.33915 38.3933C4.39179 38.4487 4.46381 38.4764 4.55523 38.4764ZM6.20924 36.8517C6.11505 36.8517 6.03333 36.8198 5.96408 36.7561C5.89759 36.6924 5.86435 36.6162 5.86435 36.5275C5.86435 36.4389 5.89759 36.3627 5.96408 36.299C6.03333 36.2353 6.11505 36.2034 6.20924 36.2034C6.30343 36.2034 6.38377 36.2353 6.45026 36.299C6.51674 36.3627 6.54999 36.4389 6.54999 36.5275C6.54999 36.6162 6.51674 36.6924 6.45026 36.7561C6.38377 36.8198 6.30343 36.8517 6.20924 36.8517ZM5.85188 37.0885H6.56245V39H5.85188V37.0885ZM8.14479 37.0885H8.8886L8.30685 39H7.32202L6.74026 37.0885H7.48408L7.79573 38.5554H7.83729L8.14479 37.0885ZM9.42319 36.8517C9.329 36.8517 9.24728 36.8198 9.17802 36.7561C9.11153 36.6924 9.07829 36.6162 9.07829 36.5275C9.07829 36.4389 9.11153 36.3627 9.17802 36.299C9.24728 36.2353 9.329 36.2034 9.42319 36.2034C9.51738 36.2034 9.59772 36.2353 9.6642 36.299C9.73069 36.3627 9.76393 36.4389 9.76393 36.5275C9.76393 36.6162 9.73069 36.6924 9.6642 36.7561C9.59772 36.8198 9.51738 36.8517 9.42319 36.8517ZM9.06582 37.0885H9.7764V39H9.06582V37.0885ZM12.0319 36.4777V39H11.446L11.3878 38.68C11.3324 38.7881 11.2507 38.874 11.1426 38.9377C11.0346 39.0014 10.9127 39.0332 10.777 39.0332C10.5609 39.0332 10.3878 38.9557 10.2575 38.8005C10.1301 38.6454 10.0664 38.4127 10.0664 38.1024C10.0664 37.867 10.0941 37.673 10.1495 37.5207C10.2049 37.3683 10.27 37.2589 10.3448 37.1924C10.3919 37.1508 10.4875 37.1162 10.6315 37.0885C10.7784 37.0608 10.9086 37.047 11.0221 37.047C11.1219 37.047 11.2244 37.0567 11.3296 37.076C11.3213 36.9431 11.3172 36.8697 11.3172 36.8558V36.5068L12.0319 36.4777ZM11.0886 38.4764C11.1634 38.4764 11.241 38.464 11.3213 38.439V37.5373C11.241 37.5262 11.1523 37.5207 11.0554 37.5207C10.9723 37.5207 10.9196 37.5276 10.8975 37.5415C10.867 37.5636 10.8421 37.6273 10.8227 37.7326C10.8061 37.8351 10.7978 37.9431 10.7978 38.0567C10.7978 38.2257 10.8227 38.3379 10.8725 38.3933C10.9252 38.4487 10.9972 38.4764 11.0886 38.4764ZM14.2843 37.0885V39H13.7067L13.6277 38.68C13.4283 38.921 13.19 39.0416 12.913 39.0416C12.8133 39.0416 12.7191 39.0277 12.6304 39C12.5446 38.9723 12.4795 38.9321 12.4351 38.8795C12.4102 38.849 12.3908 38.7728 12.377 38.6509C12.3659 38.5291 12.3603 38.3434 12.3603 38.0941V37.0885H13.0709V38.0858C13.0709 38.1412 13.0723 38.2063 13.0751 38.2811C13.0778 38.3559 13.0862 38.403 13.1 38.4224C13.1194 38.4501 13.1748 38.464 13.2662 38.464L13.3327 38.4598C13.4103 38.457 13.4906 38.439 13.5737 38.4058V37.0885H14.2843ZM15.7636 39L15.6971 38.7382C15.5697 38.946 15.3924 39.0499 15.1652 39.0499C14.9796 39.0499 14.8272 38.9986 14.7081 38.8961C14.5918 38.7908 14.5336 38.644 14.5336 38.4556C14.5336 38.3393 14.5668 38.2382 14.6333 38.1523C14.7026 38.0636 14.7968 38.0013 14.9159 37.9653C15.071 37.921 15.3106 37.896 15.6348 37.8905C15.6348 37.7077 15.6265 37.6107 15.6098 37.5996C15.596 37.5885 15.5517 37.583 15.4769 37.583C15.4298 37.583 15.3647 37.5858 15.2816 37.5913C15.1486 37.5969 14.9685 37.6121 14.7414 37.637C14.7192 37.4874 14.7026 37.3268 14.6915 37.155C14.8383 37.1245 14.9921 37.0996 15.1527 37.0802C15.3134 37.058 15.4575 37.047 15.5849 37.047C15.8065 37.047 15.9727 37.0844 16.0836 37.1592C16.1944 37.2312 16.2664 37.3268 16.2996 37.4459C16.3329 37.565 16.3481 37.716 16.3453 37.8988L16.3412 38.5097L16.3537 39H15.7636ZM15.4062 38.5845C15.4783 38.5845 15.5544 38.5706 15.6348 38.5429V38.2354H15.6015C15.3965 38.2354 15.2829 38.2465 15.2608 38.2686C15.2469 38.2825 15.2359 38.3033 15.2275 38.331C15.222 38.3587 15.2192 38.385 15.2192 38.4099C15.2192 38.4764 15.2345 38.5221 15.2649 38.5471C15.2954 38.572 15.3425 38.5845 15.4062 38.5845ZM16.6787 36.5068L17.3892 36.4777V39H16.6787V36.5068ZM18.3831 36.6314H20.1076V37.1301H19.1311V37.5622H19.9539V38.011H19.1311V38.493H20.1035V39H18.3831V36.6314ZM21.6174 37.0885H22.3612L21.7794 39H20.7946L20.2129 37.0885H20.9567L21.2683 38.5554H21.3099L21.6174 37.0885ZM23.4079 39.054C23.0754 39.054 22.8261 38.9765 22.6599 38.8213C22.4965 38.6634 22.4147 38.4155 22.4147 38.0775C22.4147 37.8919 22.4314 37.7298 22.4646 37.5913C22.5006 37.45 22.5436 37.3517 22.5934 37.2963C22.6571 37.2243 22.7735 37.1647 22.9425 37.1176C23.1142 37.0705 23.2749 37.047 23.4245 37.047C23.7819 37.047 24.0367 37.1231 24.1891 37.2755C24.3415 37.4279 24.4176 37.6717 24.4176 38.0069C24.4176 38.367 24.3359 38.6316 24.1725 38.8005C24.009 38.9695 23.7542 39.054 23.4079 39.054ZM23.4203 38.5678C23.5284 38.5678 23.599 38.5304 23.6323 38.4556C23.6655 38.3781 23.6821 38.2423 23.6821 38.0484C23.6821 37.9127 23.6752 37.8088 23.6614 37.7368C23.6475 37.662 23.6212 37.6079 23.5824 37.5747C23.5464 37.5387 23.4896 37.5207 23.412 37.5207C23.3012 37.5207 23.2375 37.5304 23.2209 37.5498C23.1987 37.5692 23.1807 37.6301 23.1669 37.7326C23.153 37.8351 23.1461 37.9418 23.1461 38.0526C23.1461 38.2409 23.1641 38.3739 23.2001 38.4515C23.2389 38.5291 23.3123 38.5678 23.4203 38.5678ZM24.7013 36.5068L25.4119 36.4777V39H24.7013V36.5068ZM27.6757 37.0885V39H27.0981L27.0192 38.68C26.8197 38.921 26.5815 39.0416 26.3045 39.0416C26.2047 39.0416 26.1105 39.0277 26.0219 39C25.936 38.9723 25.8709 38.9321 25.8266 38.8795C25.8016 38.849 25.7823 38.7728 25.7684 38.6509C25.7573 38.5291 25.7518 38.3434 25.7518 38.0941V37.0885H26.4624V38.0858C26.4624 38.1412 26.4637 38.2063 26.4665 38.2811C26.4693 38.3559 26.4776 38.403 26.4914 38.4224C26.5108 38.4501 26.5662 38.464 26.6577 38.464L26.7241 38.4598C26.8017 38.457 26.8821 38.439 26.9652 38.4058V37.0885H27.6757ZM28.8974 38.2146C28.8974 38.2645 28.8988 38.3171 28.9015 38.3725C28.9043 38.4252 28.9126 38.4584 28.9265 38.4723C28.9459 38.4917 29.0137 38.5014 29.1301 38.5014L29.2714 38.4972C29.2963 38.6302 29.3088 38.7839 29.3088 38.9584C29.2561 38.9778 29.1786 38.9958 29.0761 39.0125C28.9763 39.0291 28.8808 39.0374 28.7894 39.0374C28.5982 39.0374 28.45 38.9958 28.3447 38.9127C28.2422 38.8269 28.191 38.6953 28.191 38.518V37.4957H27.8793V37.1176L28.191 37.0885L28.378 36.6314L28.8974 36.6023V37.0885H29.3379V37.4957H28.8974V38.2146ZM29.9202 36.8517C29.826 36.8517 29.7443 36.8198 29.675 36.7561C29.6086 36.6924 29.5753 36.6162 29.5753 36.5275C29.5753 36.4389 29.6086 36.3627 29.675 36.299C29.7443 36.2353 29.826 36.2034 29.9202 36.2034C30.0144 36.2034 30.0947 36.2353 30.1612 36.299C30.2277 36.3627 30.2609 36.4389 30.2609 36.5275C30.2609 36.6162 30.2277 36.6924 30.1612 36.7561C30.0947 36.8198 30.0144 36.8517 29.9202 36.8517ZM29.5628 37.0885H30.2734V39H29.5628V37.0885ZM31.5482 39.054C31.2158 39.054 30.9665 38.9765 30.8003 38.8213C30.6368 38.6634 30.5551 38.4155 30.5551 38.0775C30.5551 37.8919 30.5717 37.7298 30.605 37.5913C30.641 37.45 30.6839 37.3517 30.7338 37.2963C30.7975 37.2243 30.9139 37.1647 31.0828 37.1176C31.2546 37.0705 31.4153 37.047 31.5649 37.047C31.9222 37.047 32.1771 37.1231 32.3295 37.2755C32.4818 37.4279 32.558 37.6717 32.558 38.0069C32.558 38.367 32.4763 38.6316 32.3128 38.8005C32.1494 38.9695 31.8945 39.054 31.5482 39.054ZM31.5607 38.5678C31.6688 38.5678 31.7394 38.5304 31.7726 38.4556C31.8059 38.3781 31.8225 38.2423 31.8225 38.0484C31.8225 37.9127 31.8156 37.8088 31.8017 37.7368C31.7879 37.662 31.7616 37.6079 31.7228 37.5747C31.6868 37.5387 31.63 37.5207 31.5524 37.5207C31.4416 37.5207 31.3779 37.5304 31.3613 37.5498C31.3391 37.5692 31.3211 37.6301 31.3072 37.7326C31.2934 37.8351 31.2865 37.9418 31.2865 38.0526C31.2865 38.2409 31.3045 38.3739 31.3405 38.4515C31.3793 38.5291 31.4527 38.5678 31.5607 38.5678ZM34.6784 37.209C34.7033 37.2395 34.7213 37.3157 34.7324 37.4376C34.7463 37.5595 34.7532 37.7451 34.7532 37.9944V39H34.0426V38.0027V37.8323C34.0426 37.7437 34.0357 37.6883 34.0218 37.6661C33.9997 37.6384 33.9484 37.6246 33.8681 37.6246C33.8293 37.6246 33.8002 37.6259 33.7808 37.6287C33.7033 37.6315 33.6229 37.6495 33.5398 37.6827V39H32.8292V37.0885H33.4068L33.4858 37.4085C33.6853 37.1675 33.9235 37.047 34.2005 37.047C34.3003 37.047 34.3931 37.0608 34.4789 37.0885C34.5676 37.1162 34.6341 37.1564 34.6784 37.209Z" fill="#55ACEE"/>
</svg>
